<?xml version="1.0" encoding="utf-8"?>
<!-- Generator: Adobe Illustrator 28.0.0, SVG Export Plug-In . SVG Version: 6.00 Build 0)  -->
<svg version="1.1" id="Layer_1" xmlns="http://www.w3.org/2000/svg" xmlns:xlink="http://www.w3.org/1999/xlink" x="0px" y="0px"
	 viewBox="0 0 425.2 425.2" style="enable-background:new 0 0 425.2 425.2;" xml:space="preserve">
<g>
	<g>
		<path d="M128.71,241.61c0-30.5,0-61,0-91.5c2.31-4.23,4.82-8.23,9.88-9.69c1.25-0.36,2.42-1.03,3.62-1.56c22.5,0,45,0,67.5,0
			c0.38,0.28,0.73,0.65,1.16,0.82c7.09,2.73,9.8,6.58,9.84,14.13c0.02,3.62-0.09,7.24-0.02,10.85c0.04,2.31,0.3,4.61,0.46,6.92
			c1.83-1.22,3.7-2.39,5.5-3.66c5.32-3.76,9.09-3.56,13.25,1.56c2.38,2.93,3.9,6.56,5.81,9.88c0,1.5,0,3,0,4.5
			c-0.97,1.26-1.71,2.82-2.93,3.74c-6.35,4.8-12.75,9.56-19.31,14.08c-2.12,1.46-2.86,3-2.83,5.5c0.12,9.6-0.21,19.22,0.1,28.81
			c0.31,9.63-2.65,16.84-12.53,19.87c-21.5,0-43,0-64.5,0C136.29,253.66,131.12,249.09,128.71,241.61z M138.25,196.4
			c0,13.37,0,26.74,0,40.11c0,7.6,2.36,9.91,10.13,9.91c18.49,0,36.99-0.01,55.48-0.01c5.95,0,7.61-1.58,7.64-7.5
			c0.04-7.37,0.02-14.74-0.01-22.12c-0.01-1.86-0.18-3.72-0.28-5.58c-1.58,0.77-3.16,1.55-4.74,2.32c-0.45,0.22-0.91,0.44-1.38,0.56
			c-8.22,2.04-16.43,4.17-24.71,5.94c-1.01,0.22-3.48-1.57-3.5-2.46c-0.05-2.56-1.41-2.42-3.1-2.41c-6.5,0.03-12.99,0.01-19.49,0.04
			c-2.24,0.01-4.61-0.13-4.75-2.97c-0.15-3.08,2.33-2.97,4.52-2.97c6.5,0,13.05-0.56,19.47,0.12c6.06,0.64,9.36-1.66,11.73-6.87
			c1.08-2.37,1.49-3.07-1.65-3.02c-9.99,0.15-19.99,0.01-29.98,0.04c-2.42,0.01-4.41-0.51-4.1-3.42c0.27-2.52,2.39-2.47,4.32-2.47
			c11.12,0.01,22.24,0.05,33.36-0.02c1.42-0.01,3.09-0.19,4.21-0.94c5.92-3.95,11.65-8.17,17.54-12.15c1.85-1.25,2.63-2.62,2.58-4.9
			c-0.15-7.12-0.03-14.24-0.06-21.36c-0.02-5.25-0.74-5.95-6.15-5.98c-8.62-0.04-17.24-0.03-25.86-0.02
			c-11.49,0.02-22.99-0.04-34.48,0.14c-5.28,0.08-6.71,1.76-6.71,6.76C138.26,168.91,138.26,182.66,138.25,196.4z M231.91,188.16
			c-0.45-0.71-0.77-1.24-1.12-1.75c-1.64-2.36-3.43-4.62-4.88-7.09c-1.26-2.15-2.37-1.85-4.11-0.59
			c-5.15,3.74-10.46,7.26-15.61,10.99c-2.83,2.05-7.52,4.23-7.66,6.58c-0.17,2.85,3.68,5.87,5.59,8.93
			c1.05,1.68,1.94,1.43,3.29,0.49c7.67-5.37,15.37-10.69,23.05-16.05C231,189.27,231.42,188.67,231.91,188.16z M187.93,212.19
			c1.69-0.4,2.89-0.68,4.09-0.98c8.37-2.11,8.33-2.09,2.88-8.89c-1-1.25-1.57-1.77-2.58-0.09c-1.65,2.76-3.43,5.44-5.1,8.18
			c-0.3,0.49-0.39,1.11-0.57,1.67C187.23,212.14,187.82,212.19,187.93,212.19z M232.78,171c-1.09,0.74-2.13,1.13-2.59,1.88
			c-0.29,0.48,0.09,1.62,0.5,2.24c1.64,2.47,3.36,4.91,5.18,7.25c0.48,0.62,1.95,1.34,2.13,1.16c0.7-0.69,1.68-1.93,1.45-2.58
			c-0.79-2.3-1.88-4.55-3.19-6.6C235.45,173.06,234.03,172.16,232.78,171z"/>
		<path d="M174.93,164.04c6.85,0,13.7,0.01,20.55,0c2.21,0,4.7,0.07,4.79,2.88c0.09,2.76-2.24,3.15-4.55,3.15
			c-13.96-0.01-27.92,0-41.88,0.02c-2.18,0-4.38-0.52-4.42-2.97c-0.05-2.79,2.28-3.06,4.59-3.05c6.97,0.06,13.95,0.02,20.92,0.02
			C174.93,164.08,174.93,164.06,174.93,164.04z"/>
		<path d="M174.82,183.91c-6.98,0-13.96-0.01-20.94,0.01c-2.09,0.01-4.38-0.09-4.43-2.77c-0.05-2.81,2.2-3.15,4.52-3.15
			c13.96,0.02,27.92,0.02,41.89-0.02c2.21-0.01,4.3,0.43,4.41,2.92c0.13,2.98-2.28,2.99-4.51,2.98c-6.98-0.03-13.96-0.01-20.94-0.01
			C174.82,183.89,174.82,183.9,174.82,183.91z"/>
	</g>
</g>
</svg>
