<?xml version="1.0" encoding="utf-8"?>
<!-- Generator: Adobe Illustrator 28.0.0, SVG Export Plug-In . SVG Version: 6.00 Build 0)  -->
<svg version="1.1" id="Layer_1" xmlns="http://www.w3.org/2000/svg" xmlns:xlink="http://www.w3.org/1999/xlink" x="0px" y="0px"
	 viewBox="0 0 425.2 425.2" style="enable-background:new 0 0 425.2 425.2;" xml:space="preserve">
<style type="text/css">
	.st0{fill:#F4931D;}
	.st1{fill:#D9D9D9;}
	.st2{fill:#B0671C;}
	.st3{fill:#B16719;}
	.st4{fill:#A65F18;}
	.st5{fill:#A76018;}
	.st6{fill:#0FFFFF;stroke:#FFFFFF;stroke-width:3;stroke-miterlimit:10;}
</style>
<g>
	<g>
		<g>
			<path class="st0" d="M61.4,233.2c-0.2,0-0.3,0-0.5,0.1c-0.4,0.2-0.8,0.3-1.3,0.5c-0.2,0-0.4,0-0.5,0.1c-0.4,0.1-0.9,0.3-1.3,0.4
				c-0.5,0-1,0.1-1.5,0.1c-1.1,0.1-2.3-0.5-3.2,0.5l-0.2,0.1h-0.2c-1.9,0-3.8,0-5.7,0h-0.2l-0.2-0.1c1.8-1.5,4.2,0.3,6-1.2
				c0.3,0,0.6-0.1,1-0.1c0.9,0,1.9,0.4,2.6-0.5c0.6-0.2,1.2-0.4,1.8-0.6c1.4-0.4,2.8-0.8,4.1-1.2c0.6-0.3,1.3-0.5,1.9-0.8
				c0.3-0.1,0.9-0.2,0.6-0.7c-0.1-0.2-0.7-0.1-1.1-0.1c-0.2,0.1-0.4,0.3-0.7,0.4c-0.6,0.1-1.1,0.1-1.7,0.2c-0.2,0.1-0.5,0.3-0.7,0.4
				c-0.2,0-0.4,0.1-0.6,0.1c-0.2-0.2-0.4-0.4-0.6-0.6c0-0.2,0-0.4,0-0.5c0.1-0.1,0.3-0.1,0.5-0.1c0.7,0,1.4,0.1,1.9-0.6
				c1.8-0.7,3.4-1.6,5.3-1.8c0.4,0.7,1.2,0.7,1.9,0.7c0.6,0.8,1.2,0.8,1.8,0l0,0c0.4,0,0.8,0,1.2,0c0.2,0.6,0.4,1.2,0.6,1.8
				c-0.5,0.3-0.6,0.7-0.5,1.2c-0.3,0-0.6,0.1-0.8,0.1c-1.4,0.1-2.3,1.1-3.3,1.8c-5.3,3.6-11,6.4-17.6,6.6c-1.5,0-3,0-4.4-0.2
				c-1.2-0.2-3.3-0.1-3.2-1.4c0.1-1,2,0.1,3.1,0.2c4.7,0.3,9.3-0.2,13.6-2.3c0.5,0,0.9-0.1,1.2-0.6l0,0c0.5,0,0.9-0.2,1.2-0.6l0,0
				c0.5,0,0.9-0.2,1.2-0.6l0,0c2.1-0.5,3.6-1.9,5.4-3c0.6-0.4,1.8-0.7,1.2-1.5c-0.6-0.7-1.3,0.2-1.9,0.8
				C65.4,231.2,63.4,232.2,61.4,233.2z"/>
		</g>
		<g>
			<path class="st0" d="M113.1,168c1.6,1.5,3.5,2.6,5.7,3c0.5,0.1,1.1,0.1,1.1,0.8c-0.1,0.9-0.9,0.6-1.4,0.6
				c-3.6-0.6-6.5-2.7-8.6-5.5c-1.8-2.4-2.9-2.6-5.3-0.5c-4.4,3.9-9.4,6.9-15.4,7.8c-2.9,0-5.8,0-8.6,0h-0.2L80,174
				c0-0.2,0-0.4,0-0.6c0.8,0,1.7-0.1,2.5-0.1c1.5,0,2.9,0,4.4,0c0.7,0.1,1.5,0.2,2-0.4c3-0.7,5.9-1.6,8.4-3.5
				c0.4-0.2,0.8-0.5,1.1-0.7l0,0c0.2-0.2,0.5-0.4,0.7-0.5l0,0c1.1-0.3,2-1.1,2.9-1.9c0.2-0.2,0.5-0.4,0.7-0.6c0.2,0,0.3-0.1,0.5-0.2
				c0.2-0.1,0.3-0.3,0.5-0.4l0,0c0.6-0.6,2.5-0.6,1.2-2.3c-0.6-0.4,0-0.8,0-1.2c0.2,0,0.4,0,0.6,0c1.2,0.4,1.7-0.6,2.4-1.2
				c0.4-0.6,0.8-0.6,1.2-0.1c-0.1,0.1-0.2,0.2-0.2,0.3c0.1-0.1,0.2-0.2,0.3-0.2c0.2,0.2,0.4,0.4,0.5,0.6c0,0.2,0,0.4,0,0.7l0,0
				c-0.1,0.1-0.2,0.1-0.2,0.2c0,0.1,0.1,0.3,0.2,0.4c1.3,1.4,2.3,2.9,4.1,3.7c1.2,1.2,2.7,1.9,4.1,2.8c0.4,0.2,0.7,0.5,0.6,0.9
				c-0.2,0.4-0.6,0.4-1,0.2c-1.4-0.7-2.8-1.5-4.1-2.2c-1.4-1.6-2.8-3.2-4.6-4.4c-0.2-0.2-0.6,0.2-0.4,0.5
				C109.7,165.3,111.2,166.8,113.1,168z"/>
		</g>
		<g>
			<path class="st0" d="M68.7,151.3c1-0.6,2-1.2,3-1.8c0.9,0.8,1.6,1.9,0.1,2.5c-1.6,0.7,0.4,1.2-0.1,1.7c-1.6,0.4-2.7,1.3-3,3
				c-0.4,0.2-0.8,0.4-1.2,0.5c-1.2,1.2-2.5,2.4-3.7,3.6c-1.1,0.8-2.2,1.7-3.4,2.5c-0.5,0.2-0.6,0.7-0.7,1.2c-1.8-0.4-3.2,1-4.8,1.2
				c-0.7,0-1.3-0.1-1.8,0.5c-0.4,0-0.7,0.1-1.1,0.1c-0.4,0-0.9,0-1.3,0c-0.2,0-0.4,0-0.5-0.1c0.8-0.4,1.6-0.8,2.4-1.1
				c1.4-0.9,3.7-0.1,4.2-2.4c1.9,0.6,2.9-1,4.3-1.7c0.5-0.2,1.3-0.6,0.8-1.1c-0.8-0.9-1.5-0.2-2.1,0.5c-0.9,0.9-3,0.4-2.9,2.5
				c-1.1-0.4-2.1-0.3-3.2,0.1c-1.6,0.6-3.1,0.7-4.6-0.1c0-0.2,0-0.4,0.1-0.6c1.9-0.1,3.9,0.3,5.4-1.3c0.4,0,0.8,0,1.1-0.1
				c1-0.6,2-1.1,3-1.7c0.8-0.6,1.6-1.2,2.4-1.8c0.4-0.2,0.7-0.5,1.1-0.8c1.2,0,0.8-1.2,1.3-1.7h0.3h0.3c0.6,0.1,0.9-0.1,1.2-0.6
				c0.4-0.4,0.9-0.7,1.3-1.1C67.1,152.5,67.9,151.9,68.7,151.3z M68.6,154.3c0.5-0.4,1.4-0.7,0.8-1.4c-0.6-0.6-1.1,0.3-1.5,0.7
				c-0.3,0.2-0.7,0.4-0.9,0.7c-0.4,0.3-0.9,0.8-0.6,1.2c0.5,0.7,1,0,1.4-0.3S68.4,154.6,68.6,154.3z M65.5,156.9
				c0-0.7-0.5-0.8-0.8-0.6c-0.9,0.6-2.2,0.9-2.5,2.2c-0.1,0.5,0.5,0.6,0.8,0.5C64.2,158.7,65,157.8,65.5,156.9z"/>
		</g>
		<g>
			<path class="st1" d="M91.9,185.9c2.2-3,4.7-5.7,8-7.5c4.1-2.2,8.2-2.5,11.9,0.8c-0.2,0.6-0.7,0.7-1.2,0.7
				c-4.2-2.6-8.1-1.9-11.8,1c-1.9,1.5-3.7,3-5,5c-0.5,1.9-4.1,2.5-2.4,5.4c-1.6,0-3.3-0.1-1.8,2.3c0,0.6,0.2,1.1,0.8,1.4
				c-0.9,1.1-2.4,1.8-2.6,3.4c-1.4,0-2,1.3-3,1.9c-0.7-0.4-1.3-0.9-2-1.3c0.2-0.4,0.4-0.8,0.7-1.2c0.5-0.2,0.5-0.4,0-0.6l0,0
				c0.4-0.4,0.8-0.9,1.2-1.3c0.4-0.6,0.8-1.1,1.2-1.7c0.2-0.2,0.3-0.5,0.5-0.8c0-0.2,0-0.3,0.1-0.4c0.4-0.3,0.4-0.4-0.1-0.5l0,0
				c0-0.3,0.1-0.6,0.1-0.8c0.2,0,0.3,0,0.5,0.1c0.2-0.1,0.5-0.3,0.7-0.4v-0.1c0.2-0.2,0.3-0.4,0.5-0.7l0,0c0.4-0.2,0.5-0.4,0-0.6
				l0,0c0.4-0.4,0.8-0.8,1.2-1.2c0.2-0.2,0.4-0.4,0.5-0.7C90.7,187.5,91.4,186.7,91.9,185.9z M86.9,196.9c0.7-0.8,1.9-1.2,2-2.6
				c0-0.1-0.5-0.5-0.6-0.4c-1.2,0.5-1.7,1.6-2.1,2.7C86.1,196.9,86.5,197.1,86.9,196.9z M85.9,198.5c-0.4-0.2-0.7-0.4-0.7-0.3
				c-0.2,0.2-0.4,0.4-0.5,0.6c0.2,0.1,0.3,0.2,0.5,0.2C85.3,198.9,85.6,198.7,85.9,198.5z"/>
		</g>
		<g>
			<path class="st0" d="M71.6,227.9c-0.4,0-0.8,0-1.2,0c-0.1,0-0.1-0.1-0.2-0.1c0.1,0,0.1,0.1,0.2,0.1c-0.6,0.8-1.2,0.8-1.8,0
				c-0.2-0.2-0.4-0.4-0.6-0.6c0-0.2,0-0.4,0-0.6c0.2,0,0.4,0,0.6,0c0.2,0,0.3,0,0.5,0c0.3-0.2,0.6-0.4,0.3-0.8
				c-0.3-0.4-0.6-0.1-0.9,0.2c-0.2,0-0.4,0-0.6,0l0,0c-0.2-0.2-0.4-0.4-0.6-0.6c-0.2-0.2-0.4-0.4-0.6-0.6c0.5-0.1,1.2,0.2,1.4-0.5
				c0.2-0.6-0.4-0.6-0.9-0.7c-0.2,0-0.4,0-0.6,0c-0.2,0-0.4,0-0.6,0c0-0.2,0-0.4,0-0.6c0.2,0,0.4,0,0.6,0c0.2-0.2,0.4-0.4,0.7-0.5
				c0.2,0,0.4,0,0.6,0c0.4,0.2,0.7,0.4,1.1,0.6c0.1,0,0.3-0.1,0.3-0.1c0-0.1-0.1-0.3-0.1-0.4c0-0.2,0-0.4,0-0.6
				c-0.2-0.2-0.4-0.4-0.6-0.6c-0.4-0.4-0.8-0.8-1.2-1.2c0-0.2,0-0.4,0-0.5c1.4-0.5,1.8,0.8,2.2,1.5c0.6,1,1.4,1.5,2.6,1.4l0,0
				c1.4,0.9,2.8,0.9,4.2,0c3.6-0.8,6.1-3.5,9-5.4c0.6-0.2,1.2-0.4,1.8-0.6c0,0.4,0,0.8,0,1.2c-0.4,0.8-3.1,0.9-0.6,2.4
				c0,0.2,0,0.3,0,0.5c-2.2,0.8-4.4,1.6-6.6,2.5c-1,0-1.5,0.9-2.3,1.3c-0.4,0-0.8,0-1.2,0c-0.2,0.2-0.4,0.4-0.6,0.6
				c-0.5,0.3-0.6,0.7-0.6,1.2c-0.2,0.4-0.4,0.8-0.6,1.2l0,0c-0.2,0.2-0.4,0.4-0.6,0.5c-0.6-0.4-1.2-0.8-1.8-1.1
				c-0.2-0.3-0.4-0.3-0.6,0.1C71.7,227.1,71.7,227.5,71.6,227.9L71.6,227.9z M70.2,224.2c-0.1-0.1-0.3-0.2-0.4-0.3
				c-0.1,0.1-0.1,0.3-0.1,0.4c0,0.1,0.2,0.2,0.2,0.2C70,224.4,70.1,224.3,70.2,224.2z"/>
		</g>
		<g>
			<path class="st0" d="M66.9,169.2c-2.1,2.6-3.7,5.6-6.3,7.9c-4,3.6-8.4,4.8-13.4,2.2c-0.2-0.2-0.5-0.3-0.7-0.5l0,0
				c-0.2-0.1-0.4-0.3-0.6-0.5l-0.1-0.1c-0.6-0.6-1.1-1.3-1.6-1.9c-0.2-0.2-0.4-0.4-0.6-0.6l0,0c-0.2-0.2-0.4-0.4-0.5-0.6l0,0
				c0.1-0.4,0.3-0.7,0.5-1.1l0.1,0.1c0.2,0.2,0.3,0.3,0.5,0.5c6.9,6.5,11.8,6.2,17.8-1c0.8-0.9,1.5-1.9,2.1-2.9
				c1.7-2.6,1.5-3-1.8-3.7c0.6-0.6,1.2-1.3,1.8-1.9c-0.4,1.4,0.4,2.3,1.5,2.1c1.6-0.3,1.4-1.6,0.8-2.7c0.4,0,0.8,0,1.2,0
				c0,0.7,0,1.4,0.6,1.9c-0.2,0.4-0.4,0.8-0.6,1.1C66.8,167.9,66.9,168.6,66.9,169.2z"/>
		</g>
		<g>
			<path class="st1" d="M82.9,199.1c0.7,0.4,1.3,0.9,2,1.3l0,0c-0.2,0.2-0.5,0.4-0.7,0.5c-0.5,0.4-0.6,0.8,0,1.2
				c0.2,0,0.4,0,0.6-0.1c0,0.2,0,0.4,0,0.7c-0.2,0-0.4,0-0.6,0c-0.2,0.2-0.4,0.4-0.6,0.6l0,0c-1.1,1,0.4,1.2,0.6,1.8l0,0
				c-0.5,0-0.9,0.1-1.2,0.6c-2.3,1.6-4.9,2.5-7.6,3c-0.7-0.1-1.6,0-2.1-0.8c2.4-1.6,4.5-3.4,6.5-5.4c1.1-0.4,1.1-1.7,1.9-2.3
				C82.2,199.9,82.5,199.5,82.9,199.1z"/>
		</g>
		<g>
			<path class="st0" d="M70.9,231c0.3,0,0.6-0.1,0.8-0.1c1,1,1.9,2,2.9,3c2,2.9,4.8,4.7,8.3,5.3c0.6,0.1,1.3,0.3,1.9-0.2
				c-0.5-0.2-1-0.6-1.5-0.7c-2.1-0.6-4-1.6-5.6-3.2c0.2-0.2,0.4-0.4,0.6-0.6c2.9,1.9,5.9,3.4,9.6,3c0.2,0.6-0.9,1.7,0.6,1.9
				c-3.7,2.1-8.5,1.5-12.1-1.6C74.1,235.8,72.4,233.5,70.9,231z"/>
		</g>
		<g>
			<path class="st0" d="M71.6,153.7c0.4-0.5-1.6-1,0.1-1.7c1.5-0.6,0.8-1.7-0.1-2.5l0,0c0.9,0,1.5-0.4,1.8-1.2
				c1.2-1.1,2.6-1.9,4.1-2.4c0.6,0.1,1,0,1.3-0.6l0,0c0.6,0.1,1,0,1.2-0.6l0,0c0.4,0,0.8,0,1.2,0c0.2,0,0.4,0,0.6,0
				c0,0.2,0,0.4,0.1,0.7l0,0c-0.9-0.1-1.5,0.3-1.8,1.2l0,0c-0.2,0.2-0.4,0.4-0.7,0.6c-1,1.4-2.4,2.4-3,4.1c-0.2,0-0.4,0-0.5,0.1
				c-0.2,0.2-0.5,0.4-0.7,0.5c-0.2,0.4-0.4,0.8-0.6,1.2c-0.7,0.4-1.1,0.9-1.2,1.8c-0.2,0.4-0.4,0.8-0.6,1.2
				c-0.6-0.4-1.1-0.7-1.7-1.1l0,0c0.2-0.2,0.4-0.4,0.5-0.7C71.6,154,71.6,153.9,71.6,153.7z"/>
		</g>
		<g>
			<path class="st1" d="M108.4,195.4c0.2,0,0.3,0,0.4,0.1c-0.2,0.6-0.8,0.5-1.3,0.7c-0.2,0-0.3,0-0.5-0.1c-0.7-0.7-1.6-0.5-2.5-0.4
				c-1.3,0.7-2.9,0-4,1.1c-0.2,0.2-0.5,0.4-0.7,0.5c-0.4,0-0.8,0.1-1.1,0.1c-0.2,0.1-0.5,0.3-0.7,0.5l0,0c-0.4,0.2-0.8,0.5-1.2,0.7
				c-1.1,0-1.9,0.8-2.9,1.2c-1,0.6-2,1.2-3,1.8c-0.6,0.4-1.2,0.8-1.8,1.1c-0.7,0.1-0.9,0.7-1.2,1.3c-0.8,0.2-1.6,0.4-2.4,0.5
				c-0.2-0.2-0.4-0.4-0.6-0.6c0.2-0.4,0.4-0.8,0.6-1.2c0.4-0.4,0.8-0.8,1.2-1.2c1.8,0.6,2.9-0.3,3.6-1.8c1.9-0.2,3.4-1.1,4.8-2.4
				c1.5,0,2.4-1.2,3.6-1.8c0.6,0,1.5,0.1,1.3-0.6c-0.2-1.1-1.1-0.8-1.9-0.4c-0.2,0-0.4,0-0.6,0c0.7-1.1,2.1-0.6,3-1.3
				c-0.1,1.9,1.2,1.7,2.4,1.6c1.6-0.2,3.1-0.2,4.7,0.3C107.8,195.2,108.1,195.3,108.4,195.4z"/>
		</g>
		<g>
			<path class="st0" d="M116,217.7c0.8,1.4-0.6,2.1-1.1,3.1c-0.2,0.2-0.5,0.4-0.7,0.6l0,0c-1.2-0.4-2.4-0.9-3.5-1.3
				c-0.1-0.2-0.1-0.3-0.1-0.5c0.2-0.2,0.4-0.4,0.6-0.5c0.4,0.1,0.9,0.4,1.1,0.2c0.7-0.6-0.2-0.7-0.4-0.9c-2.1-1-4.2-2-6.6-1.8
				c-2.6-0.3-5.1-0.2-7.7,0c-0.4,0-0.8-0.1-1.2-0.1c-0.2-0.2-0.4-0.4-0.6-0.6c0-0.2,0.1-0.3,0.2-0.4c3.7-0.8,7.5-0.5,11.2,0
				c1.4,0.4,2.6,1.7,4.2,0.5C112.9,216.2,113.9,218.5,116,217.7z"/>
		</g>
		<g>
			<path class="st1" d="M48.3,194.4c-2-1.1-3.9,0-5.9,0.1c-0.8-0.3-1.8,0.2-2.5-0.6c0.4-0.2,0.8-0.4,1.2-0.6
				c0.4-0.2,0.8-0.4,1.2-0.6c0.9,0.1,1.8-0.3,2.5-0.8c1.1-0.7,0.6-1.2-0.3-1.6l0,0c0.2-0.2,0.5-0.5,0.7-0.7s0.4-0.3,0.6-0.5
				c0.2,0,0.4,0,0.6-0.1c0.2,0,0.4,0,0.6,0c0,0.4,0,0.8,0.1,1.2c-0.1,0.1-0.1,0.1-0.1,0.2c0.1-0.1,0.1-0.2,0.1-0.2
				c0.2,0,0.4,0,0.7-0.1c0.2,0,0.4,0.1,0.5,0.1c0.2-0.2,0.4-0.4,0.6-0.6c0-0.2,0-0.4-0.1-0.6c0.2,0,0.5-0.1,0.8-0.1h0.3h0.3v0.2
				c0.2,1.3,1.1,2.3,1.8,3.4c-0.4,0.1-0.9-0.1-1.2,0.5c0.4,0.1,0.9,0.1,1.4,0.1c0.2,0,0.3,0.1,0.5,0.1c0.2,0.3,0.3,0.6,0.5,0.9
				c-0.6,0.2-1.1-0.2-1.7-0.4c-0.2,0.2-0.4,0.4-0.6,0.6l0,0C49.9,193.8,49.1,194.3,48.3,194.4z M49.7,191.8c0.1-0.1,0.1-0.3,0.2-0.5
				c-0.2,0-0.3-0.1-0.5,0c-0.1,0-0.1,0.2-0.1,0.2C49.4,191.6,49.5,191.7,49.7,191.8z"/>
		</g>
		<g>
			<path class="st0" d="M30.8,229.2c-0.3-0.2-0.6-0.5-0.9-0.8c0.5-0.9,2.1-1.6,1.3-2.6c-1-1.3-1.7,0.6-2.6,0.9
				c-0.4-0.4-0.7-0.8-0.2-1.3c0.9-0.2,1-1.1,1.4-1.7c0.8-0.8,1.6-1.6,2.5-2.4c0.2-0.4,0.4-0.8,0.5-1.2c1.3,0,1.4-1.4,2.4-1.8
				c0.6,0.9,1.5,1.1,2.4,0.6c-0.2,0.4-0.4,0.8-0.6,1.2c-0.4,0.8-0.9,1.5-1.3,2.3l-0.1,0.1c-0.2,0.2-0.3,0.4-0.5,0.6
				c-0.4,1-1.3,1.7-1.1,2.9c-0.4,0.4-0.9,0.8-1.3,1.2c-0.2,0.4-0.4,0.8-0.6,1.3C31.7,228.7,31.3,229,30.8,229.2z M32.3,224.8
				c1-0.5,1.3-1.6,1.8-2.6c0.1-0.3,0-0.7-0.3-0.6c-1.1,0.5-1.9,1.4-2.1,2.7C31.6,224.6,31.8,224.9,32.3,224.8z M35.5,220.2
				c-0.1-0.1-0.2-0.2-0.4-0.2c0,0-0.2,0.1-0.2,0.2c0,0.1,0.1,0.3,0.2,0.4C35.3,220.4,35.4,220.3,35.5,220.2z"/>
		</g>
		<g>
			<path class="st0" d="M35.7,150.7c1.8-1.1,3.9-1.1,5.9-1.3c1.6,0.4,3.4-0.5,4.9,0.6c-0.6,0-1.2,0-1.8,0.1s-1.1,0.2-1.7,0.2
				c0.4,0.6,1,0.4,1.6,0.6c1.6,0.5,3.3,0.3,5,0.4c1.8,0.4,3.6,0.8,5.4,1.2c-0.2,0.2-0.5,0.5-0.7,0.7c-0.9-0.1-1.9-0.1-2.8-0.2
				c-0.7-0.7-1.6-0.5-2.4-0.6c-2-1.1-4.2-0.4-6.2-0.5c-0.5,0-0.4,0.3-0.1,0.4c0.2,0.1,0.6,0.1,0.9,0.1c-0.2,0.2-0.4,0.4-0.6,0.6
				c-1.2,0-2.4,0-3.5,0c-1.2,0-2.4,0-3.6,0c0.4-0.2,0.9-0.4,1.3-0.6c0.7-0.2,1.8-0.2,1.7-1.2c-0.1-0.8-1.1-0.6-1.8-0.6
				C36.5,150.7,36.1,150.7,35.7,150.7z"/>
		</g>
		<g>
			<path class="st0" d="M46.4,150c-1.5-1.1-3.3-0.2-4.9-0.6c4.4-1.2,8.9-0.7,13.3-0.3c4.6,0.4,9.2,1.4,13.8,2.2
				c-0.8,0.6-1.5,1.2-2.3,1.9c-0.3-1.7-1.8-1.4-2.8-1.6c-5.4-1-10.9-1.9-16.4-1.4C46.9,150.1,46.7,150.1,46.4,150z"/>
		</g>
		<g>
			<path class="st0" d="M109.4,160.2c-0.5-0.6-0.9-0.5-1.2,0.1c-0.8,0.1-1.8-0.2-2.4,0.6c-0.5,0-0.9-0.1-1.1-0.6
				c0.2-0.2,0.4-0.4,0.6-0.6c0.2,0,0.4,0,0.6,0c0.1-0.1,0.2-0.1,0.2-0.2c0-0.1-0.1-0.3-0.2-0.4l0,0c-0.4-0.6-0.8-1.2-1.2-1.8l0,0
				c0.4-0.2,0.8-0.4,1.1-0.6c0.1,0.4,0.1,0.8,0.5,0.9c0.1,0,0.3-0.2,0.3-0.3c-0.1-0.5-0.5-0.5-0.9-0.6c-0.2-0.4-0.4-0.8-0.5-1.2
				c-0.2-0.4-0.5-0.8-0.7-1.2c1.8-0.2,2.5,2.1,4.4,1.7c0.9-0.2,1.7-0.3,2.3,0.6c-0.8,1.3,2.6,3.8-1.2,4.2
				C109.8,160.6,109.6,160.4,109.4,160.2L109.4,160.2z"/>
		</g>
		<g>
			<path class="st0" d="M112.4,224.3c-0.5,1.2-1.4,0.9-2.3,0.5c-1.7-0.8-3.3-0.6-4.9,0.1c-0.2-0.2-0.4-0.4-0.6-0.6
				c0.3-1.1-0.8-0.8-1.2-1.2c-1.3-1.1-2.9-0.5-4.3-0.5c-0.2,0.1-0.3,0.1-0.5,0c-0.8-0.9-2-0.5-3-0.6c-1.4-0.2-2.9,0.5-4.2-0.5
				c2.6,0,5.2,0,7.8,0c1.2,0.9,2.5,0.4,3.8,0.4c0.3,0,0.7,0.1,1,0.1c0.2,0.2,0.4,0.4,0.6,0.5c1.2-0.1,2.5,0.6,3.6-0.5l0,0
				c1.5,0.7,3.4,0.1,4.8,1.2l0,0c-0.6,0-1.2,0.1-1.8,0.1C111.6,223.7,112,224,112.4,224.3z"/>
		</g>
		<g>
			<path class="st0" d="M104.5,154.3c0.2,0.4,0.5,0.8,0.7,1.2c-0.7,0.9-1.3,0.1-2,0c-1.4-0.9-2.3-2.1-2.9-3.6l0,0
				c0.5-0.4,0.5-0.8,0.2-1.3c-1.2-2.3-3.2-1-4.9-1.2c-0.7-0.5-1.4-1-1.8-1.8c1.2,0,2.3-0.3,3.1-1.2c2.5,1.1,4.7,2.7,6.5,4.9
				c-0.5-0.1-1-0.3-1.4-0.1c-0.5,0.2,0,0.7,0.2,0.9C103,152.9,103.8,153.6,104.5,154.3z"/>
		</g>
		<g>
			<path class="st0" d="M116.2,211.1c0.2,0,0.3,0.1,0.4,0.2c0.2,0.1,0.3,0.3,0.5,0.5l0,0c0.2,0.2,0.4,0.4,0.6,0.6l0,0
				c0.2,0.2,0.4,0.4,0.5,0.6l0,0c0,0.4,0,0.8,0,1.1l0,0c-0.2,0-0.4,0-0.6,0l0,0c-0.2-0.2-0.4-0.4-0.6-0.6l0,0
				c-0.2-0.2-0.4-0.4-0.6-0.6l0,0c-0.2-0.2-0.4-0.4-0.6-0.6l0,0c-0.3-0.2-0.5-0.4-0.8-0.6c-0.2,0-0.3-0.1-0.4-0.2
				c-0.2-0.1-0.4-0.3-0.6-0.4l0,0c-0.3-0.5-0.7-0.6-1.2-0.6l0,0c-0.3-0.6-0.8-0.6-1.4-0.6c-2.9-0.4-5.7-1.1-8.7-0.7
				c-0.9,0-1.8-0.3-2.5,0.6l0,0c-0.7-0.1-1.4,0.1-1.8-0.6c0.1-0.1,0.2-0.1,0.4-0.1c0.3-0.1,0.6-0.3,0.8-0.4c0.2-0.1,0.4-0.2,0.6-0.3
				c0.8-0.2,1.6-0.4,2.4-0.6c3.4,0.3,6.9-0.1,10.2,0.9c0.3,0.3,0.7,0.7,1,1c0.2,0,0.5,0.1,0.7,0.1l0,0c0.2,0.2,0.4,0.4,0.6,0.6l0,0
				C115.7,210.7,115.9,210.9,116.2,211.1z"/>
		</g>
		<g>
			<path class="st0" d="M116,217.7c-2.1,0.8-3.1-1.5-4.8-1.7c-1-0.4-2-0.7-3.1-1.1c-1.8-0.4-3.5-0.9-5.3-1.4
				c-1.2-1.2-3.1,0.2-4.2-1.2C105.2,211.4,111,213.5,116,217.7z"/>
		</g>
		<g>
			<path class="st1" d="M23.8,183.1c0.5-0.9,1.3-1.5,2.2-1.9c0.3,0.3,0.6,0.5,0.9,0.8c1.7,0.5,3-1.1,4.6-0.8c0,0.2,0,0.4,0,0.6
				c-1.1,0.1-2.1,0.4-2.9,1.3c-0.2,0.1-0.8-0.2-0.6,0.4c0.2-0.1,0.4-0.3,0.6-0.5c2.2-0.1,4.4-1.2,6.7,0c-0.4,0.2-0.8,0.4-1.2,0.6
				c-4.5-0.4-8.2,2-12,3.7c0.5-1,1.4-1.6,2.2-2.3C25.1,184.1,25.3,183.4,23.8,183.1z"/>
		</g>
		<g>
			<path class="st0" d="M96.9,146.4c-0.8,0.9-1.9,1.3-3.1,1.2l0,0c-0.2-0.2-0.5-0.4-0.7-0.5c-1.6-0.8-3.1-1.7-4.7-2.5
				c-0.7-0.8-1.6-0.6-2.5-0.5c-0.3,0-0.6,0-0.9,0c-0.5-0.1-1,0-1.3,0.5c-0.1,0.1-0.3,0.2-0.4,0.1c-0.4,0-0.9-0.1-1.3-0.1
				c-0.2,0-0.4,0-0.6,0c0-0.2,0-0.4,0-0.6c0.1-0.1,0.3-0.1,0.4-0.1c0.6,0.1,1,0,1.4-0.5c0.1-0.1,0.3-0.1,0.5-0.1c2.3,0,4.5,0,6.8,0
				c1.8,0.1,3.2,0.9,4.7,1.8c0.2,0.5,0.6,0.7,1.1,0.7l0,0C96.4,146.1,96.7,146.2,96.9,146.4L96.9,146.4z"/>
		</g>
		<g>
			<path class="st1" d="M51.3,193.8c0.5,0.2,1,0.6,1.7,0.4l0.1,0.2c0.9,1.6,1.9,3.2,2.9,4.8c-1.6,0.2-0.9,1-0.5,1.8
				c-0.2,0.2-0.5,0.5-0.7,0.7l0,0c-0.2-0.2-0.4-0.4-0.7-0.7c-1.9-1.5-3.4-3.4-4.8-5.4c0.6-0.2,1.1-0.6,1.4-1.3l0,0
				C50.9,194.2,51.1,194,51.3,193.8z M52.9,195.9c-0.2-0.2-0.4-0.3-0.6-0.5c-0.1,0.2-0.2,0.4-0.2,0.5c0.1,0.2,0.4,0.4,0.6,0.6
				C52.8,196.2,52.8,196.1,52.9,195.9z"/>
		</g>
		<g>
			<path class="st0" d="M39.8,171.2c-2.2-3-4.4-6-6.6-9c0.5-0.3,0.6-0.8,0.7-1.4c2.2,1.5,4.3,3.2,6.1,5.3c-0.2,0.3-0.5,0.5-0.8,0.8
				c-0.2,0-0.4,0-0.5-0.1c-0.2-0.4-0.5-1-0.9-0.8s0,0.6,0.3,0.8c0.1,0.1,0.1,0.2,0.2,0.3c0.2,0.3,0.4,0.6,0.5,0.9
				c0.2,0.2,0.3,0.4,0.5,0.6c0.4,0.4,0.8,0.9,1.1,1.3c0.1,0.2,0.1,0.4,0.1,0.5C40.3,170.7,40,170.9,39.8,171.2z"/>
		</g>
		<g>
			<path class="st0" d="M35.7,150.7c0.4,0,0.8,0,1.2,0c0.7,0,1.7-0.2,1.8,0.6c0.1,1-1,0.9-1.7,1.2c-0.4,0.2-0.9,0.4-1.3,0.6l0,0
				c-0.4,0.1-0.8,0.2-1.3,0.3c0.4,0.1,0.9,0.1,1.3,0.2c0.8,0.1,1.5,0.1,2.3,0.2c0,0.3,0,0.7,0,1c-0.6,0-1.1,0-1.7-0.1
				c-1.5-0.7-2.9-0.7-4.4,0c-0.8,0.1-1.6,0.1-1.6-1l0,0c0.2-0.2,0.4-0.4,0.5-0.5C32.1,151.6,34,151.2,35.7,150.7z"/>
		</g>
		<g>
			<path class="st1" d="M65.6,209.4c-2.8-0.6-5.1-2.3-7.2-4.2c0.4-0.7,1.2-0.9,1.9-1.3l0,0c0.3,0.5,0.8,0.6,1.3,0.5l0,0
				c0.2,0.2,0.4,0.4,0.7,0.6c1.9,1.7,4,3.1,6.5,3.6C67.8,209.8,66.6,209.1,65.6,209.4z"/>
		</g>
		<g>
			<path class="st1" d="M20.6,205.1c1-0.4,2-0.8,3-1.2c1.2-0.3,2.7-0.2,3.1-1.9c1.2-1.2,3.2-0.9,4.2-2.3l0,0c0.2,0,0.4,0,0.6-0.1
				c0.2-0.2,0.4-0.4,0.5-0.5c1.1-0.2,2.1-0.4,3.1-0.6c-4,3.1-8.3,5.8-13.2,7.2C21.7,205.2,21.1,205.3,20.6,205.1z"/>
		</g>
		<g>
			<path class="st0" d="M30.4,153.7c0.1,1.2,0.9,1.1,1.6,1c0.1,0.1,0.2,0.2,0.2,0.2c0.1,0.6,0.6,0.8,1.1,1.1c0,0.2,0,0.4,0,0.6
				c-0.4,0-0.8,0-1.2,0c-0.4-0.6-1.1-0.7-1.6-0.4c-0.9,0.7,0.4,0.8,0.4,1.2c0.2,1.5,1.6,1.9,2.4,2.9c0.2,0.2,0.4,0.4,0.7,0.5l0,0
				c-0.1,0.5-0.2,1.1-0.7,1.4l0,0c-0.2-0.2-0.4-0.4-0.7-0.6c-0.8-0.7-1.6-1.5-2.4-2.2C26.9,156.6,26.9,156.6,30.4,153.7z"/>
		</g>
		<g>
			<path class="st0" d="M110,160.8c3.9-0.4,0.5-2.9,1.2-4.2c1.8,2.6,3.6,5.2,5.5,7.8c0.2,0.4,0.5,0.9,0,1c-0.4,0.1-0.9-0.2-1.4-0.3
				c-1.7-1.3-3.2-2.9-5.3-3.6C110,161.2,110,161,110,160.8z"/>
		</g>
		<g>
			<path class="st0" d="M66.9,169.2c0-0.6-0.1-1.4,0.6-1.8c0.2,1.4,1.4,1.5,2.4,2c4,2.1,8.3,3.1,12.7,3.9c-0.8,0-1.7,0.1-2.5,0.1
				c-0.2,0.2-0.4,0.3-0.6,0.5C74.9,173.3,70.9,171.2,66.9,169.2z"/>
		</g>
		<g>
			<path class="st0" d="M34.6,213.7c0.4-0.1,0.8-0.1,1.1-0.2c0.7,1.3,0.7,2.3-1.1,2.5c-0.7,0-1.4-0.1-1.9,0.5
				c-0.9,0.6-1.7,1.2-2.5,1.9c-0.5,0.4-1.1,0.7-1.6,1.1c-1,0.6-2,1.3-3.1,1.9c-0.4,0-0.7,0-1,0c-0.4-1.1,0.7-1.2,1.1-1.7
				c1-0.6,2-1.2,3-1.8c0.6-0.4,1.2-0.8,1.8-1.2c1-0.6,1.9-1.3,2.9-1.9l0,0c0.2-0.1,0.5-0.3,0.7-0.5C34.2,214,34.4,213.9,34.6,213.7z
				"/>
		</g>
		<g>
			<path class="st1" d="M39.6,176.3c1-0.2,1.8,0.5,2.8,0.7c0.8,0.6,1.6,1.2,2.4,1.8l0,0c0.2,0.2,0.4,0.4,0.6,0.5l0.1,0.1
				c0.2,0.2,0.4,0.4,0.5,0.6l0,0c0.2,0.2,0.4,0.4,0.5,0.6c1,1.6,2,3.2,3,4.8c-0.2,0.2-0.4,0.4-0.5,0.6c-1-1.2-2-2.4-3-3.7
				c-1.9-2.8-4.6-4.6-7.9-5.4C38.6,176.7,39.1,176.5,39.6,176.3z"/>
		</g>
		<g>
			<path class="st1" d="M123.7,197.9c-0.5,1.4-1.1,2.1-2.2,0.5c-0.8-1.1-1.7-2.2-2.5-3.3c1.1-0.6,0.1-1.3,0.1-1.9
				c0.2-0.2,0.4-0.4,0.6-0.6c0.2-0.2,0.5-0.5,0.7-0.7C121.4,193.9,122.6,195.9,123.7,197.9z"/>
		</g>
		<g>
			<path class="st1" d="M35.2,198.6c-1.1,0.2-2.1,0.4-3.1,0.6c-0.2,0-0.3,0-0.5,0.1c-0.7-0.4-0.5,0.3-0.6,0.5l0,0
				c-0.8,0.2-1.7,0.4-2.5,0.6c-0.3-0.9-1.2-0.5-1.8-0.7c-0.4-0.2-0.8-0.4-1.2-0.6c1.3-0.3,2.6-0.6,3.9-1c0.5-0.2,1.3,0.3,1.5-0.6
				c-0.6-0.1-1.1-0.1-1.7-0.2c2-0.9,4-0.9,6,0.1c0.3,0.2,0.6,0.5,0.8,0.7C35.7,198.3,35.4,198.4,35.2,198.6z"/>
		</g>
		<g>
			<path class="st1" d="M53.6,184.1c0.1-0.1,0.1-0.3,0.1-0.4c3.5-1.6,6.9-3.6,10.7-4.3c0.1,0.1,0.1,0.2,0.2,0.2
				c0.6,0.1,1.1,0.3,1.7,0.5c-4,1.2-7.9,2.6-11.5,4.9c-0.1-0.1-0.3-0.1-0.4-0.1C54.2,184.7,53.9,184.4,53.6,184.1z"/>
		</g>
		<g>
			<path class="st0" d="M102.3,227.4c-1.8,1.8-3.6,3.6-5.4,5.4c-0.2,0.2-0.4,0.4-0.6,0.6l0,0c-0.2,0-0.4,0-0.6,0c-0.2,0-0.4,0-0.6,0
				c0.8-1.4,1.6-2.8,2.4-4.2c1.2-0.8,2.4-1.6,3.6-2.4C101.5,226.8,102,226.8,102.3,227.4z"/>
		</g>
		<g>
			<path class="st1" d="M67.4,178.8c2.1,0.9,4.2,0.9,6.3,0.1c0.8,0,1.9,0,2.7,0c1.4,0.6,2.8,1.1,4.2,1.7c-0.3,0.3-0.5,0.5-0.8,0.8
				c-4.2-1.3-8.5-1.6-12.9-1.3c-0.1,0-0.1,0-0.1-0.1c-0.6-0.7-1.4-0.4-2.1-0.3c-0.1-0.1-0.1-0.1-0.2-0.2"/>
		</g>
		<g>
			<path class="st1" d="M32.8,195.7c1.3-0.3,2.7-0.5,4-0.8c1,0.1,1.8-0.4,2.5-0.9c0.2,0,0.4,0,0.7-0.1c0.7,0.7,1.7,0.3,2.5,0.6
				c-2.6,0.5-4.3,2.5-6.5,3.6c-0.3-0.2-0.6-0.5-0.8-0.7C35.6,195,33,197,32.8,195.7z"/>
		</g>
		<g>
			<path class="st1" d="M110.7,180c0.5,0,1-0.2,1.2-0.7c2.6,1.6,3.8,4.3,5.2,6.8c0,0.5-0.1,0.9-0.6,1.2
				C114.7,184.7,113,182.1,110.7,180z"/>
		</g>
		<g>
			<path class="st0" d="M95,233.3c0.2,0,0.4,0,0.6,0c0,0.2,0,0.4,0,0.6c-1.6,1.6-3.2,3.2-5.2,4.2c-0.3,0.2-0.5,0.3-0.8,0.5l0,0
				c-0.5,0-0.9,0.1-1.2,0.6l0,0c-1.5-0.2-0.5-1.2-0.6-1.9l0,0c0.5,0,0.9-0.1,1.2-0.5c1.1-0.6,2.3-1.3,3.5-2
				C93.3,234.4,94.2,233.9,95,233.3z"/>
		</g>
		<g>
			<path class="st0" d="M52.5,233.9c-1.8,1.5-4.2-0.4-6,1.2c-1.9-0.1-3.7-0.4-5.4-1.2c-0.3-0.6-0.8-0.6-1.4-0.5h-0.2l-0.2-0.1
				c0.5-0.7,1.2-0.6,1.9-0.7c0.2,0,0.3,0,0.5,0.1c0.3,0.5,0.8,0.5,1.4,0.5C46.2,233.6,49.3,234.1,52.5,233.9z"/>
		</g>
		<g>
			<path class="st1" d="M27.5,197.5c-3.6,0.9-7.3,0.4-11,0.6c-0.2-0.2-0.5-0.4-0.7-0.6c0.2-0.2,0.5-0.4,0.7-0.7c2.8,0,5.6,0,8.4,0
				C25.6,197.6,26.6,197.3,27.5,197.5z"/>
		</g>
		<g>
			<path class="st1" d="M23.8,183.1c1.5,0.3,1.2,1,0.3,1.8c-0.9,0.7-1.8,1.3-2.2,2.3l0,0c-0.5,0-0.9,0.2-1.1,0.7
				c-0.4,0.2-0.7,0.4-1.1,0.6c-0.3-0.3-0.6-0.6-0.9-0.9c1.4-1.3,2.9-2.7,4.4-4C23.4,183.4,23.6,183.3,23.8,183.1L23.8,183.1z"/>
		</g>
		<g>
			<path class="st0" d="M33.2,214.7c-1,0.6-1.9,1.3-2.9,1.9c0.6-1.6-0.7-1.5-1.5-1.7c-1.7-0.5-3.4-0.9-5.1-1.3
				c0.5-0.7,1.2-0.5,1.9-0.6C28.2,213.5,30.7,214.1,33.2,214.7z"/>
		</g>
		<g>
			<path class="st0" d="M60.8,211.8c2.1,1.2,4,2.7,5.5,4.7c-0.4,0-0.8,0-1.2,0c-2-1.5-3.5-3.8-6.5-3c-0.5-0.3-1-0.6-1.2-1.2
				c0.2,0,0.3,0,0.5,0C59,213.1,60,212.7,60.8,211.8z"/>
		</g>
		<g>
			<path class="st0" d="M24.4,221.3c0.4,0,0.7,0,1,0c1.6,1.8,2.4-0.3,3.6-0.6c0.2,0.2,0.5,0.5,0.8,0.7c-0.2,0.8-2.6,1.4-0.1,2.4
				c-0.4,0.6-0.5,1.5-1.4,1.7c0.1-0.6,0.2-1.5-0.4-1.4C25.8,224.2,25.3,222.6,24.4,221.3z"/>
		</g>
		<g>
			<path class="st0" d="M87.8,215.3c1.4-1.3,2.9-2.4,4.7-3c0.6,1,1.4,0.2,2.1,0.1c0.3,0.2,0.7,0.3,1,0.5c0,0.2,0,0.4,0,0.6
				c-2.8-0.2-4.8,2.5-7.7,1.9L87.8,215.3z"/>
		</g>
		<g>
			<path class="st0" d="M104.5,154.3c-0.8-0.7-1.6-1.4-2.3-2.2c-0.2-0.2-0.7-0.7-0.2-0.9c0.3-0.2,0.9,0.1,1.4,0.1
				c1.9,1.6,3.7,3.1,5.5,4.7C107.1,156.4,106.3,154.1,104.5,154.3z"/>
		</g>
		<g>
			<path class="st0" d="M65.1,216.6c0.4,0,0.8,0,1.2,0c2.1,1.9,4.2,3.7,5.9,6c-1.2,0.1-1.9-0.4-2.6-1.4c-0.5-0.7-0.8-2-2.2-1.5
				c-0.4-0.4-0.8-0.8-1.2-1.3c-0.2-0.2-0.4-0.4-0.6-0.6C65.5,217.3,65.3,216.9,65.1,216.6z"/>
		</g>
		<g>
			<path class="st0" d="M60.8,211.8c-0.9,0.9-1.8,1.4-3,0.5c-0.4-0.7-0.9-1.1-1.8-1.1l0,0c-0.2-0.2-0.5-0.4-0.7-0.5l0.1,0.1
				c-0.2-0.6-0.7-0.7-1.2-0.7l0,0c-0.2-0.6-0.7-0.7-1.3-0.6l0,0c0.4-0.6,1-0.7,1.6-0.8c0.1-0.1,0.2-0.1,0.3,0.1
				c0.4,0.6,0.9,0.6,1.5,0.5c0.1-0.1,0.3,0,0.4,0.1c0.3,0.4,0.7,0.6,1.2,0.6l0,0c0.3,0.2,0.6,0.3,0.9,0.5c0.1-0.1,0.2-0.1,0.3,0.1
				c0.2,0.2,0.5,0.3,0.7,0.5l0,0C59.9,211.6,60.3,211.8,60.8,211.8L60.8,211.8z"/>
		</g>
		<g>
			<path class="st0" d="M113.1,223.2c-1.4-1.1-3.3-0.5-4.8-1.2c0.8-0.6,1.5-1.2,2.3-1.8l0.2-0.1c1.2,0.4,2.4,0.9,3.5,1.3
				C114,222.1,114,222.9,113.1,223.2z"/>
		</g>
		<g>
			<path class="st1" d="M102.8,207.9c-0.8,0.2-1.6,0.4-2.4,0.6c-1.8-0.7-3.7-1.4-5.5-2.1c0.2-0.2,0.5-0.4,0.7-0.6
				c2.4,0.6,4.8,1.1,7.2,1.7C102.8,207.7,102.8,207.8,102.8,207.9z"/>
		</g>
		<g>
			<path class="st1" d="M27.5,197.5c-0.9-0.2-1.9,0.2-2.6-0.7c1-0.2,2-0.4,3-0.6c1.2,0.1,2.5,0.1,3.6-0.6l0,0c0.4,0,0.8,0.1,1.2,0.1
				c0.3,1.3,2.9-0.7,2.3,1.7c-2-0.9-4-1-6-0.1C28.6,197.4,28,197.4,27.5,197.5z"/>
		</g>
		<g>
			<path class="st1" d="M100.5,196.8c1.1-1.1,2.8-0.4,4-1.1c0.1,0.1,0.1,0.2,0.1,0.4c0.3,2.2,2.7,2.1,3.7,3.6
				c-0.2,0.2-0.5,0.4-0.7,0.6c-0.6-0.4-1.2-0.7-1.9-1.1c-1.5-0.9-2.5-2.7-4.7-2.4C100.9,196.8,100.7,196.8,100.5,196.8z"/>
		</g>
		<g>
			<path class="st1" d="M39.6,176.3c-0.5,0.2-1,0.4-1.5,0.6c-1.1,0.1-2.2,0.1-3.3,0.2c-0.9,0.4-1.8,0.7-2.7,1.1
				c-0.3-0.5-0.8-0.6-1.3-0.6C33.6,175.8,36.4,175,39.6,176.3z"/>
		</g>
		<g>
			<path class="st1" d="M79.9,181.4c0.3-0.3,0.5-0.5,0.8-0.8c2.2,0.6,4.2,1.6,6,3c-0.2,0.2-0.5,0.5-0.8,0.7
				C83.9,183.3,81.9,182.3,79.9,181.4z"/>
		</g>
		<g>
			<path class="st1" d="M30.8,177.6c0.5,0.1,1,0.1,1.3,0.6l0,0c-0.4,0.4-0.8,0.7-1.2,1.1c-0.4,0.2-0.8,0.5-1.1,0.8
				c-1.2,0.3-2,1.1-2.9,1.8c-0.3-0.3-0.6-0.5-0.9-0.8l0,0c0.2-0.2,0.4-0.4,0.6-0.6C27.9,179.4,29.2,178.3,30.8,177.6z"/>
		</g>
		<g>
			<path class="st1" d="M60.3,204c-0.7,0.3-1.4,0.5-1.9,1.3c-1.6-0.8-2.8-1.9-3.6-3.5c0.2-0.2,0.5-0.5,0.7-0.7
				C56.4,203,58.8,202.7,60.3,204z"/>
		</g>
		<g>
			<path class="st0" d="M28.5,217.7c-1,0.6-2,1.2-3,1.8c0.7-2.6-1.8-1.6-2.8-2.4c-0.5-0.4-1.6-0.4-1.2-1.2c0.2-0.6,1.1,0,1.6,0.1
				C25,216.5,26.6,217.6,28.5,217.7z"/>
		</g>
		<g>
			<path class="st1" d="M87.8,204c0.3-0.5,0.5-1.1,1.2-1.3c1.5,2,4.2,1.5,6.1,2.9c-0.4,0.2-0.8,0.4-1.2,0.6
				C91.8,205.8,89.7,205.2,87.8,204z"/>
		</g>
		<g>
			<path class="st0" d="M94.6,212.4c-0.7,0-1.4,0.8-2.1-0.1l0,0c0.2-0.1,0.4-0.3,0.6-0.5c0.1-0.1,0.3-0.2,0.4-0.2
				c0.2-0.2,0.5-0.3,0.8-0.5c1.3-0.8,2.7-1.6,4.2-1.9c0.4,0.7,1.2,0.6,1.8,0.6c-1.5,0.6-3.1,1.2-4.6,1.8c-0.3,0.2-0.5,0.3-0.8,0.5
				l-0.2,0.1L94.6,212.4z"/>
		</g>
		<g>
			<path class="st1" d="M116.5,187.2c0.5-0.2,0.6-0.7,0.6-1.2c1.4,1.8,2.2,3.8,3.1,5.8c-0.2,0.2-0.5,0.5-0.7,0.7
				c-0.6-0.8-1.1-1.6-1.7-2.4C117.4,189.2,117,188.2,116.5,187.2z"/>
		</g>
		<g>
			<path class="st1" d="M107.6,200.3c0.2-0.2,0.5-0.4,0.7-0.6c2,0.9,4.1,1.8,5.9,3.1c-0.4,0-0.8,0-1.2,0c-0.2,0-0.5,0.1-0.7,0.1
				c-0.3,0-0.7-0.1-1-0.1c-0.2-0.5-0.7-0.6-1.1-0.6C109.5,201.1,108.4,200.9,107.6,200.3z"/>
		</g>
		<g>
			<path class="st1" d="M85.9,184.3c0.2-0.2,0.5-0.5,0.8-0.7c1.9,0.5,3,2.8,5.3,2.3c-0.6,0.8-1.2,1.6-1.8,2.4
				C89.9,185.8,87.1,185.8,85.9,184.3z"/>
		</g>
		<g>
			<path class="st1" d="M21.9,203.3c-1.8-0.1-3.6,0.4-5.4-0.5c2.3-1.5,4.8-0.1,7.2-0.7c0,0.2,0,0.4,0,0.6
				C23.1,202.9,22.5,203.1,21.9,203.3z"/>
		</g>
		<g>
			<path class="st1" d="M19.4,193.9c-1.4-0.5-3.6,0.8-3.9-1.8c0.2,0,0.4-0.1,0.6-0.1c1,0.2,1.9,0.4,2.9,0.7c0.8,0.9,1.8,0.5,2.7,0.5
				c0.5,0,1,0.1,1.5,0.1C22,194.3,20.6,193.5,19.4,193.9z"/>
		</g>
		<g>
			<path class="st1" d="M113,197.4c1.6,1,3.2,2,4.8,3c-0.2,0.2-0.5,0.4-0.7,0.7c-1.8-1-3.6-2-5.4-3.1
				C112.2,198,112.7,197.9,113,197.4z"/>
		</g>
		<g>
			<path class="st1" d="M53.6,184.1c0.3,0.3,0.6,0.6,0.8,0.8c-0.1,0.1-0.1,0.3-0.2,0.5l0,0c-0.8,0.4-1.6,0.8-2.4,1.2
				c-0.3,0.2-0.7,0.4-1,0.6c-0.1,0-0.2-0.1-0.3-0.1c-0.4-0.7-0.7-0.6-1,0c-0.2,0-0.5,0-0.7,0c0-0.4,0.1-0.8,0.1-1.2
				c0.2-0.2,0.4-0.4,0.5-0.6C51.4,186.6,52.1,184.2,53.6,184.1z"/>
		</g>
		<g>
			<path class="st0" d="M25.6,212.9c-0.7,0.1-1.4-0.1-1.9,0.6c-1.2-0.2-2.5-0.4-3.7-0.7c-0.4-0.1-0.8-0.3-0.6-0.8
				c0.1-0.5,0.5-0.5,0.9-0.4C22.1,211.9,24,212,25.6,212.9z"/>
		</g>
		<g>
			<path class="st0" d="M41.2,232.6c-0.7,0.1-1.4-0.1-1.9,0.7c-1.5-0.3-2.9-1.1-4.2-1.8c0.4-0.2,0.8-0.4,1.2-0.6
				C38,231.5,39.6,232.1,41.2,232.6z"/>
		</g>
		<g>
			<path class="st0" d="M39.8,171.2c0.2-0.2,0.5-0.5,0.7-0.8h0.2c0.1,0.2,0.3,0.4,0.5,0.6c0.8,1,1.5,2.1,2.3,3.1
				c-0.1,0.4-0.3,0.7-0.5,1.1C41.7,174,40.5,172.7,39.8,171.2z"/>
		</g>
		<g>
			<path class="st1" d="M113,197.4c-0.3,0.5-0.8,0.5-1.3,0.6c-1.4-0.6-2.8-1.2-4.2-1.8c0.5-0.1,1-0.1,1.3-0.7
				C110.4,195.8,111.6,196.6,113,197.4z"/>
		</g>
		<g>
			<path class="st1" d="M65.6,209.4c1-0.3,2.3,0.4,3.1-0.7c0.8,0,1.6,0,2.4,0c0.6,0.9,1.6,0.4,2.4,0.6
				C70.9,210.5,68.2,210.4,65.6,209.4z"/>
		</g>
		<g>
			<path class="st0" d="M36.4,230.9c-0.4,0.2-0.8,0.4-1.2,0.6c-1.4-0.8-2.9-1.5-4.3-2.3c0.4-0.2,0.9-0.5,1.3-0.7
				C33.5,229.3,34.9,230.1,36.4,230.9z"/>
		</g>
		<g>
			<path class="st0" d="M102.3,227.4c-0.2-0.6-0.8-0.6-1.3-0.7c1.1-1,2.3-1.8,3.6-2.4c0.2,0.2,0.4,0.4,0.6,0.6
				C104.3,225.8,103.3,226.6,102.3,227.4z"/>
		</g>
		<g>
			<path class="st0" d="M80.5,174.1c2.9,0,5.8,0,8.6,0C86.3,175,83.4,174.9,80.5,174.1z"/>
		</g>
		<g>
			<path class="st1" d="M117.1,201.1c0.2-0.2,0.5-0.4,0.7-0.7c1.2,0.7,2.5,1.3,3.5,2.1s0,0.8-0.5,0.9
				C119.5,202.6,118.3,201.9,117.1,201.1z"/>
		</g>
		<g>
			<path class="st1" d="M112.9,202.8c0.4,0,0.8,0,1.2,0c1.4,0.6,2.9,1.1,4.3,1.7c-0.6,0.2-1.4,0-1.9,0.7
				C115.2,204.6,114,203.7,112.9,202.8z"/>
		</g>
		<g>
			<path class="st1" d="M16,201.7c2.6,0,5.2-0.1,7.7-0.1c0,0.2,0,0.3,0,0.5c-2.4,0.6-4.9-0.8-7.2,0.7C16.1,202.6,16,202.1,16,201.7z
				"/>
		</g>
		<g>
			<path class="st1" d="M117.8,209.3c-0.4,0-0.8,0-1.2,0c0-0.5-0.1-0.9-0.6-1.1c-0.6,0-1.2,0-1.8,0c-0.2,0-0.3-0.1-0.5-0.1
				c1-0.4,2-0.8,2.9-1.1c0.4,0,0.8,0.1,1.2,0.1c0,0.5,0,1.1,0,1.6C117.8,208.9,117.8,209.1,117.8,209.3z"/>
		</g>
		<g>
			<path class="st1" d="M23.6,203.9c-0.4-0.6-1.2-0.3-1.8-0.6c0.6-0.2,1.2-0.4,1.9-0.6c1-0.2,2-0.4,3-0.6"/>
		</g>
		<g>
			<path class="st0" d="M98.6,212.3c1.1,1.4,3-0.1,4.2,1.2c-1.6,0-3.2,0-4.8,0c-0.5-0.6-1.3-0.5-1.9-0.6
				C96.8,212.3,97.7,212.2,98.6,212.3z"/>
		</g>
		<g>
			<path class="st1" d="M116.6,205.1c0.5-0.7,1.3-0.4,1.9-0.7c0.8,0.2,1.5,0.4,2.3,0.7c0,0.5-0.2,0.9-0.6,1.2l0,0
				c-0.5-0.7-1.2-0.6-1.9-0.5c-0.2,0-0.3-0.1-0.5-0.1c-0.2-0.1-0.5-0.3-0.7-0.4C117,205.2,116.8,205.2,116.6,205.1z"/>
		</g>
		<g>
			<path class="st0" d="M90.3,143.4c-2.3,0-4.5,0-6.8,0C85.8,142.4,88.1,142.5,90.3,143.4z"/>
		</g>
		<g>
			<path class="st1" d="M120.2,206.4c0.5-0.3,0.6-0.7,0.6-1.2c2.1,1,0.3,2.1,0.1,3.1c-0.1-0.1-0.2-0.2-0.4-0.3
				c-0.5-0.3-1.1-0.6-1.6-0.9C119.3,206.8,119.8,206.6,120.2,206.4z"/>
		</g>
		<g>
			<path class="st0" d="M46.9,235.2c1.9,0,3.8,0,5.7,0C50.7,235.7,48.8,235.9,46.9,235.2z"/>
		</g>
		<g>
			<path class="st1" d="M19.4,193.9c1.2-0.3,2.7,0.4,3.8-0.6c0.2,0,0.4,0,0.6,0c0.2,0.2,0.4,0.4,0.6,0.6c0,0.2,0,0.3,0,0.5
				c-0.8,0.1-1.6,0.1-2.4,0.2C21,194.3,20.2,194.1,19.4,193.9z"/>
		</g>
		<g>
			<path class="st1" d="M114.2,208.2c0.6,0,1.2,0,1.8,0c-0.2,0.4-0.4,0.9-0.6,1.3c-0.1,0.2-0.2,0.3-0.3,0.4c-0.1,0-0.2,0-0.3,0.1
				l0,0c-0.2-0.4-0.5-0.3-0.7-0.1c-0.3-0.3-0.7-0.7-1-1C113.5,208.7,114,208.7,114.2,208.2z"/>
		</g>
		<g>
			<path class="st1" d="M16,191.9c-0.2,0-0.4,0.1-0.6,0.1c-0.5-1.6,0.1-2.6,1.7-3.1c0.2,0.2,0.5,0.5,0.8,0.7
				C17.3,190.5,15.8,190.5,16,191.9z"/>
		</g>
		<g>
			<path class="st1" d="M73.5,209.4c-0.8-0.2-1.8,0.3-2.4-0.6l0.2-0.1h0.2c0.6,0.1,1.1,0.1,1.4-0.5c0.2,0,0.4-0.1,0.6-0.1
				c0.5,0.8,1.3,0.7,2.1,0.8C74.9,209.3,74.2,209.3,73.5,209.4z"/>
		</g>
		<g>
			<path class="st1" d="M17.9,189.7c-0.2-0.2-0.5-0.5-0.8-0.7c0.6-0.4,1.1-0.9,1.7-1.3c0.3,0.3,0.6,0.6,0.9,0.9
				C19.2,189.1,18.6,189.5,17.9,189.7z"/>
		</g>
		<g>
			<path class="st1" d="M20.6,205.1c0.5,0.2,1.1,0.1,1.3,0.7c-0.7,0.4-1.5,0.8-2.4,0.7c-0.3-0.3-0.6-0.6-0.9-0.9
				C19.4,205.5,20,205.3,20.6,205.1z"/>
		</g>
		<g>
			<path class="st1" d="M84.8,203.9c0.2,0.2,0.4,0.4,0.6,0.6c-0.3,0.4-0.7,0.6-1.2,0.6c-0.1-0.6-1.7-0.8-0.6-1.8
				C83.9,203.9,84.3,203.9,84.8,203.9z"/>
		</g>
		<g>
			<path class="st1" d="M50.7,194.4c-0.3,0.6-0.8,1-1.4,1.3c-0.5-0.3-0.9-0.7-1-1.3C49.1,194.3,49.9,193.8,50.7,194.4z"/>
		</g>
		<g>
			<path class="st0" d="M76.4,222.6c-1.4,0.9-2.8,0.9-4.2,0C73.6,222.5,75,222.5,76.4,222.6z"/>
		</g>
		<g>
			<path class="st1" d="M31.5,195.6c-1.1,0.7-2.4,0.6-3.6,0.6C29,195.2,30.3,195.6,31.5,195.6z"/>
		</g>
		<g>
			<path class="st1" d="M18.8,205.7c0.3,0.3,0.6,0.6,0.9,0.9c-0.7,0.3-1.5,0.9-1.9-0.1C17.4,205.7,18.2,205.6,18.8,205.7z"/>
		</g>
		<g>
			<path class="st0" d="M112.4,224.3c-0.4-0.3-0.8-0.7-1.2-1c0.6,0,1.2-0.1,1.8-0.1C112.8,223.6,112.6,224,112.4,224.3z"/>
		</g>
		<g>
			<path class="st0" d="M53.1,235.1c0.9-1,2.1-0.5,3.2-0.5C55.3,235.2,54.2,235.1,53.1,235.1z"/>
		</g>
		<g>
			<path class="st1" d="M117.8,209.3c0-0.2,0-0.4,0-0.6c0.6,0,1.1,0,1.7-0.1c0.4,0,0.8,0.1,1.2,0.1
				C119.8,209.6,118.8,209.3,117.8,209.3z"/>
		</g>
		<g>
			<path class="st0" d="M100.4,210c0.7-0.9,1.6-0.6,2.5-0.6C102.2,210,101.3,210,100.4,210z"/>
		</g>
		<g>
			<path class="st0" d="M96.1,212.9c0.7,0.1,1.4,0,1.9,0.6c-0.3,0.1-0.7,0.1-1,0.2c-0.4,0-0.9-0.1-1.4-0.1c0-0.2,0-0.4,0-0.6
				C95.8,212.8,95.9,212.8,96.1,212.9z"/>
		</g>
		<g>
			<path class="st0" d="M73.4,148.2c-0.3,0.9-0.9,1.3-1.8,1.2C72,148.7,72.6,148.3,73.4,148.2z"/>
		</g>
		<g>
			<path class="st0" d="M87.2,216.6c-0.6,0.2-1.2,0.4-1.8,0.6c0.4-0.7,1-1.1,1.7-1.3l0.2,0.2C87.3,216.2,87.2,216.4,87.2,216.6z"/>
		</g>
		<g>
			<path class="st1" d="M104.6,196.1c0-0.1-0.1-0.3-0.1-0.4c0.9-0.1,1.8-0.3,2.5,0.4C106.2,196.1,105.4,196.1,104.6,196.1z"/>
		</g>
		<g>
			<path class="st1" d="M115.4,209.4c0.2-0.4,0.4-0.9,0.6-1.3c0.5,0.2,0.6,0.7,0.6,1.1C116.2,209.4,115.8,209.4,115.4,209.4z"/>
		</g>
		<g>
			<path class="st1" d="M93.9,206.3c0.4-0.2,0.8-0.4,1.2-0.6c0.2,0,0.3,0.1,0.5,0.1c-0.2,0.2-0.5,0.4-0.7,0.6
				C94.6,206.4,94.2,206.3,93.9,206.3z"/>
		</g>
		<g>
			<path class="st0" d="M57.9,210c-0.5,0-0.9-0.1-1.2-0.6c0.4,0.1,0.8,0.1,1.1,0.1C57.8,209.7,57.8,209.8,57.9,210z"/>
		</g>
		<g>
			<path class="st0" d="M118.4,214.1c0-0.4,0-0.8,0-1.1C118.9,213.4,119.1,213.7,118.4,214.1z"/>
		</g>
		<g>
			<path class="st0" d="M83,143.5c-0.3,0.5-0.8,0.6-1.4,0.5C82,143.6,82.5,143.4,83,143.5z"/>
		</g>
		<g>
			<path class="st0" d="M81.2,144.1c0,0.2,0,0.4,0,0.6c-0.4,0-0.8,0-1.2,0C80.3,144.2,80.7,144.1,81.2,144.1z"/>
		</g>
		<g>
			<path class="st0" d="M80,144.6c-0.3,0.5-0.7,0.7-1.2,0.6C79.1,144.7,79.5,144.6,80,144.6z"/>
		</g>
		<g>
			<path class="st0" d="M112.9,210.6c0.5,0,1,0.1,1.2,0.6C113.8,211,113.4,210.8,112.9,210.6z"/>
		</g>
		<g>
			<path class="st1" d="M83,205.8c0.2-0.5,0.7-0.7,1.2-0.6C84,205.6,83.6,205.8,83,205.8z"/>
		</g>
		<g>
			<path class="st0" d="M78.8,145.2c-0.2,0.6-0.7,0.7-1.3,0.6C77.8,145.3,78.2,145.1,78.8,145.2z"/>
		</g>
		<g>
			<path class="st0" d="M96.2,145.9c-0.5,0-0.9-0.2-1.1-0.7C95.6,145.2,95.9,145.4,96.2,145.9z"/>
		</g>
		<g>
			<path class="st0" d="M88.4,239.3c0.2-0.5,0.7-0.6,1.2-0.6C89.3,239.1,88.9,239.3,88.4,239.3z"/>
		</g>
		<g>
			<path class="st1" d="M120.7,208.7c-0.4,0-0.8-0.1-1.2-0.1c0.4-0.2,0.7-0.4,1.1-0.6c0.1,0.1,0.2,0.2,0.4,0.3
				C120.9,208.5,120.8,208.6,120.7,208.7z"/>
		</g>
		<g>
			<path class="st0" d="M111.6,210.1c0.6-0.1,1.1,0,1.4,0.6C112.5,210.4,112,210.2,111.6,210.1z"/>
		</g>
		<g>
			<path class="st0" d="M39.7,233.4c0.6-0.1,1.1,0,1.4,0.5C40.6,233.8,40.1,233.6,39.7,233.4z"/>
		</g>
		<g>
			<path class="st0" d="M60.8,211.8c-0.5,0-0.9-0.2-1.1-0.8C60.3,211.1,60.6,211.3,60.8,211.8z"/>
		</g>
		<g>
			<path class="st0" d="M59.6,233.9c0.4-0.2,0.8-0.3,1.3-0.5C60.6,233.8,60.1,233.9,59.6,233.9z"/>
		</g>
		<g>
			<path class="st0" d="M57.8,234.4c0.4-0.1,0.9-0.3,1.3-0.4C58.7,234.4,58.3,234.5,57.8,234.4z"/>
		</g>
		<g>
			<path class="st0" d="M61.5,234.5c-0.3,0.5-0.7,0.6-1.2,0.6"/>
		</g>
		<g>
			<path class="st0" d="M60.3,235.1c-0.3,0.5-0.7,0.6-1.2,0.6"/>
		</g>
		<g>
			<path class="st0" d="M87.1,215.8c0.2-0.2,0.4-0.4,0.7-0.5l0.1,0.1c-0.2,0.2-0.4,0.4-0.6,0.5L87.1,215.8z"/>
		</g>
		<g>
			<path class="st2" d="M115.5,210.5c-0.2-0.2-0.4-0.4-0.6-0.6"/>
		</g>
		<g>
			<path class="st3" d="M99.8,208.9c-0.3,0.1-0.6,0.3-0.8,0.4C99.2,209.1,99.5,209,99.8,208.9z"/>
		</g>
		<g>
			<path class="st1" d="M23.8,183.1c-0.2,0.2-0.4,0.4-0.6,0.5C23.4,183.5,23.6,183.3,23.8,183.1z"/>
		</g>
		<g>
			<path class="st0" d="M96.9,146.4c-0.2-0.2-0.5-0.3-0.7-0.5C96.4,146.1,96.6,146.3,96.9,146.4z"/>
		</g>
		<g>
			<path class="st0" d="M30.9,153.2c-0.2,0.2-0.4,0.4-0.5,0.5C30.6,153.5,30.8,153.3,30.9,153.2z"/>
		</g>
		<g>
			<path class="st0" d="M59.8,211c-0.2-0.2-0.5-0.3-0.7-0.5C59.3,210.7,59.5,210.9,59.8,211z"/>
		</g>
		<g>
			<path class="st1" d="M26.7,180.5c-0.2,0.2-0.4,0.4-0.6,0.6C26.2,180.9,26.4,180.7,26.7,180.5z"/>
		</g>
		<g>
			<path class="st0" d="M114.2,221.4c0.2-0.2,0.5-0.4,0.7-0.6C114.7,221,114.4,221.2,114.2,221.4z"/>
		</g>
		<g>
			<path class="st0" d="M32.6,161.5c0.2,0.2,0.4,0.4,0.7,0.6C33,161.9,32.8,161.7,32.6,161.5z"/>
		</g>
		<g>
			<path class="st2" d="M116.2,211.1c-0.3-0.2-0.5-0.4-0.8-0.6C115.7,210.7,115.9,210.9,116.2,211.1z"/>
		</g>
		<g>
			<path class="st4" d="M43,175.2c0.2,0.2,0.4,0.4,0.5,0.6C43.3,175.6,43.1,175.4,43,175.2z"/>
		</g>
		<g>
			<path class="st0" d="M79.5,173.9c0.2-0.2,0.4-0.3,0.6-0.5c0,0.2,0,0.4,0,0.6h-0.3L79.5,173.9z"/>
		</g>
		<g>
			<path class="st5" d="M94.4,211.2c-0.2,0.2-0.5,0.3-0.8,0.5C93.9,211.5,94.1,211.4,94.4,211.2z"/>
		</g>
		<g>
			<path class="st2" d="M114.1,211.2c0.2,0.1,0.4,0.3,0.6,0.4C114.6,211.5,114.4,211.3,114.1,211.2z"/>
		</g>
		<g>
			<path class="st2" d="M117.1,211.8c-0.2-0.1-0.3-0.3-0.5-0.5C116.8,211.5,116.9,211.6,117.1,211.8z"/>
		</g>
		<g>
			<path class="st0" d="M96.3,233.4c0.2-0.2,0.4-0.4,0.6-0.6C96.7,232.9,96.5,233.1,96.3,233.4z"/>
		</g>
		<g>
			<path class="st0" d="M93.2,211.9c-0.2,0.1-0.4,0.3-0.6,0.5C92.8,212.2,93,212,93.2,211.9z"/>
		</g>
		<g>
			<path class="st0" d="M95,212.3c0.3-0.2,0.5-0.3,0.8-0.5C95.6,212,95.3,212.1,95,212.3z"/>
		</g>
		<g>
			<path class="st0" d="M115.2,211.8c0.3,0.2,0.5,0.4,0.8,0.6C115.7,212.2,115.4,212,115.2,211.8z"/>
		</g>
		<g>
			<path class="st0" d="M117.7,212.4c-0.2-0.2-0.4-0.4-0.6-0.6C117.4,212,117.5,212.2,117.7,212.4z"/>
		</g>
		<g>
			<path class="st0" d="M95.6,233.9c0-0.2,0-0.4,0-0.6c0.2,0,0.4,0,0.6,0C96.1,233.5,95.9,233.7,95.6,233.9z"/>
		</g>
		<g>
			<path class="st0" d="M115.9,212.4c0.2,0.2,0.4,0.4,0.6,0.6C116.4,212.8,116.1,212.6,115.9,212.4z"/>
		</g>
		<g>
			<path class="st0" d="M118.3,213c-0.2-0.2-0.4-0.4-0.5-0.6C117.9,212.6,118.1,212.8,118.3,213z"/>
		</g>
		<g>
			<path class="st0" d="M116.5,213c0.2,0.2,0.4,0.4,0.6,0.6C117,213.4,116.8,213.2,116.5,213z"/>
		</g>
		<g>
			<path class="st0" d="M58.7,210.5c-0.3-0.2-0.6-0.3-0.9-0.5C58.2,210.1,58.4,210.3,58.7,210.5z"/>
		</g>
		<g>
			<path class="st1" d="M54.1,201.1c0.2,0.2,0.4,0.4,0.7,0.7C54.6,201.5,54.3,201.3,54.1,201.1z"/>
		</g>
		<g>
			<path class="st0" d="M117.2,213.6c0.2,0.2,0.4,0.4,0.6,0.6C117.6,213.9,117.4,213.7,117.2,213.6z"/>
		</g>
		<g>
			<path class="st0" d="M34,214.2c-0.2,0.1-0.5,0.3-0.7,0.5C33.5,214.5,33.7,214.4,34,214.2z"/>
		</g>
		<g>
			<path class="st0" d="M89.6,238.7c0.3-0.2,0.5-0.3,0.8-0.5C90.1,238.3,89.9,238.5,89.6,238.7z"/>
		</g>
		<g>
			<path class="st0" d="M117.8,214.1c0.2,0,0.4,0,0.6,0C118.2,214.5,118,214.5,117.8,214.1z"/>
		</g>
		<g>
			<path class="st1" d="M119,193.2c0,0.6,1,1.3-0.1,1.9c-4-5-8.8-8.3-15.5-7.8c-0.5-0.7-1.3-0.6-2-0.8c6.2-1.8,11.2,0.3,15.8,4.3
				C117.8,191.6,118.4,192.4,119,193.2z"/>
		</g>
		<g>
			<path class="st1" d="M101.4,186.5c0.7,0.2,1.5,0,2,0.8c-2.3,0.8-4.7,1.4-6.5,3c-1,1-3.2,0.9-3,3c-1.7-0.3-2.2,0.8-2.2,2.2
				c-0.4-0.1-0.8-0.3-1.2-0.4c-0.6-0.3-0.8-0.8-0.8-1.4c0.6-0.4,1.2-0.7,1.8-1.1c0.4-0.4,0.8-0.8,1.1-1.2c0.9-0.5,1.3-1.5,1.8-2.3
				l0,0c0.4,0.6,0.8,0.4,1.2-0.1C97.4,188,99.2,186.7,101.4,186.5z"/>
		</g>
		<g>
			<path class="st1" d="M93.8,193.3c-0.2-2.2,2-2,3-3c0.4,0.5,0.8,1.1,1.2,1.6c-0.1,0.1-0.2,0.2-0.2,0.4c-0.7,1.9-2.9,1.6-4.1,2.8
				C94.2,194.4,94.1,193.9,93.8,193.3z"/>
		</g>
		<g>
			<path class="st1" d="M110.6,193.8c-0.2,0-0.4-0.1-0.5-0.2c-0.3-0.4-0.7-0.6-1.2-0.5c-1.9-0.5-3.7-0.9-5.6-0.7l0,0
				c-0.5,0-1,0.1-1.6,0.1c0-0.2,0-0.4,0-0.6c0.2-0.2,0.4-0.4,0.7-0.6l0,0c0.6,0,1.2,0,1.8,0c0.4,0.6,0.8,0.6,1.2,0
				c1.3-0.2,2.4,0.2,3.6,0.6c0.3,0.5,0.7,0.6,1.3,0.5c0.2,0,0.4,0.1,0.5,0.2c0.2,0.1,0.5,0.3,0.7,0.4l0,0
				C111,193.4,110.8,193.6,110.6,193.8z"/>
		</g>
		<g>
			<path class="st1" d="M122.6,201c-2.6,0.5-3.6-1.9-5.5-2.9c0.2-0.2,0.4-0.4,0.6-0.6C119.4,198.6,121,199.8,122.6,201z"/>
		</g>
		<g>
			<path class="st1" d="M117.8,197.4c-0.2,0.2-0.4,0.4-0.6,0.6c-1.4-1-2.8-1.9-4.3-2.9c0.2-0.3,0.5-0.5,0.8-0.8
				C115,195.4,116.4,196.4,117.8,197.4z"/>
		</g>
		<g>
			<path class="st1" d="M108.8,192c-1.2-0.4-2.3-0.8-3.6-0.6c-0.4,0-0.8,0-1.2,0c-0.6,0-1.2,0-1.8,0c2.5-1.1,4.9-1.2,7.2,0.4
				C109.2,191.9,109,192,108.8,192z"/>
		</g>
		<g>
			<path class="st1" d="M113.6,194.3c-0.2,0.3-0.5,0.5-0.8,0.8c-0.8-0.4-1.5-0.9-2.3-1.3c0.2-0.2,0.5-0.5,0.7-0.7
				C112.2,193.1,112.9,193.8,113.6,194.3z"/>
		</g>
		<g>
			<path class="st1" d="M102.3,191.4c-0.2,0.2-0.4,0.4-0.7,0.6c-0.4,0-0.8,0-1.2,0c-0.2-0.1-0.5-0.1-0.7-0.1
				C100.5,191.2,101.4,191.3,102.3,191.4z"/>
		</g>
		<g>
			<path class="st1" d="M99.8,191.9c0.2,0.1,0.5,0.1,0.7,0.1c-0.8,0.7-1.7,0.8-2.6,0.2c0.1-0.1,0.1-0.2,0.2-0.4
				C98.7,191.9,99.2,191.9,99.8,191.9z"/>
		</g>
		<g>
			<path class="st1" d="M108.8,192c0.2-0.1,0.4-0.1,0.6-0.1c0.2,0.2,0.4,0.4,0.6,0.6C109.5,192.7,109.1,192.5,108.8,192z"/>
		</g>
		<g>
			<path class="st1" d="M111.2,193.1c-0.2-0.1-0.5-0.3-0.7-0.4C110.8,192.9,111,193,111.2,193.1z"/>
		</g>
		<g>
			<path class="st0" d="M54.2,232c-3.6,0.1-7.2,0.1-10.6-1.2c0.9-0.9,2.1-0.3,3.1-0.6c0.2,0,0.3,0,0.5,0.1c3.2,1,6.4,1,9.6,0
				c0.1-0.1,0.3-0.1,0.5-0.1c0.6,0,1.3,0,1.9,0.1c0.2,0.2,0.4,0.4,0.6,0.6c-0.2,0.1-0.3,0.1-0.5,0.1c-0.7-0.1-1.4-0.1-1.9,0.4
				C56.2,231.6,55.1,231.4,54.2,232z"/>
		</g>
		<g>
			<path class="st0" d="M72.3,229.7c-0.2-0.6-0.4-1.2-0.6-1.8l0,0C72.9,228.1,73.2,228.7,72.3,229.7L72.3,229.7z"/>
		</g>
		<g>
			<path class="st0" d="M53.4,233.8c0.8-0.5,1.7-0.6,2.6-0.5C55.4,234.2,54.4,233.8,53.4,233.8z"/>
		</g>
		<g>
			<path class="st0" d="M68,227.3c0.2,0.2,0.4,0.4,0.6,0.6c-0.7,0-1.4,0.1-1.9-0.7l0,0C67.2,227.3,67.6,227.3,68,227.3z"/>
		</g>
		<g>
			<path class="st0" d="M59.6,229.7c0.5-0.5,1.2-0.6,1.9-0.6C61,229.8,60.3,229.7,59.6,229.7z"/>
		</g>
		<g>
			<path class="st0" d="M59.1,230.3c-0.6,0-1.3,0-1.9-0.1c0.6-0.5,1.2-0.6,1.9-0.5C59.1,229.9,59.1,230.1,59.1,230.3z"/>
		</g>
		<g>
			<path class="st0" d="M63.4,229.8c-0.2,0.1-0.4,0.3-0.7,0.4C62.9,230,63.1,229.9,63.4,229.8z"/>
		</g>
		<g>
			<path class="st0" d="M61,230.4c-0.1,0.1-0.2,0.3-0.2,0.4c-0.2,0-0.4,0-0.5-0.1C60.5,230.7,60.8,230.5,61,230.4z"/>
		</g>
		<g>
			<path class="st0" d="M105.8,159.7c-0.2,0-0.4,0-0.6,0c-0.2,0.2-0.4,0.4-0.6,0.6c0.2,0.5,0.7,0.6,1.1,0.6c0,0.2,0,0.4,0,0.6
				c-0.2,0-0.4,0-0.6,0c-0.7,0-1.4-0.1-1.8,0.6c-0.6,0.4-1.2,0.7-1.8,1.1c-0.4,0.1-0.8,0.2-1.2,0.3c-0.2,0.1-0.4,0.3-0.7,0.4
				c-1.4,0.6-2.8,1.2-4.2,1.8c-6.8,1.8-13.6,2-20.3-0.6c0.5-0.2,0.9-0.5,1.4-0.7c0.8,0.1,1.6,0.2,2.3,0.4c7.3,1.6,14.2,0.9,20.9-2.6
				c1-0.4,2-0.8,3-1.2c0.5-0.1,1.1-0.1,1-0.8c-0.2-0.7-0.9-0.4-1.5-0.4c-0.2,0.1-0.5,0.3-0.7,0.4c-0.4,0.1-0.7,0.1-1.1,0.2
				c-0.7-0.1-1.4,0-1.9-0.7c0.4,0,0.7-0.1,1.1-0.1c0.5,0.1,1,0.1,1.3-0.4c0.7-0.2,1.5-0.3,1.7-1.1c0-0.2,0-0.5,0-0.7
				c0.6,0,1.2,0,1.9-0.1l0,0c-0.7,1.3-0.8,2.2,1.2,1.8l0,0C105.8,159.2,105.8,159.5,105.8,159.7z"/>
		</g>
		<g>
			<path class="st0" d="M103.3,164.4H103h-0.3c-0.2-0.2-0.4-0.4-0.6-0.6c0.1-0.8,1.9-0.5,1.2-1.8c0.5-0.6,1.1-0.6,1.8-0.6
				c0,0.4-0.6,0.8,0,1.2C104.6,163.2,104,163.8,103.3,164.4z"/>
		</g>
		<g>
			<path class="st0" d="M105.8,161.5c0-0.2,0-0.4,0-0.6c0.6-0.9,1.6-0.5,2.4-0.6C107.5,160.8,107,161.8,105.8,161.5z"/>
		</g>
		<g>
			<path class="st0" d="M87,173.3c0.6-0.4,1.3-0.6,2-0.4C88.4,173.6,87.7,173.4,87,173.3z"/>
		</g>
		<g>
			<path class="st0" d="M97.4,169.4c0.2-0.6,0.6-0.7,1.1-0.7C98.2,168.9,97.8,169.1,97.4,169.4z"/>
		</g>
		<g>
			<path class="st0" d="M109.5,160.2c-0.1,0.1-0.2,0.2-0.3,0.2C109.3,160.4,109.4,160.3,109.5,160.2
				C109.4,160.2,109.5,160.2,109.5,160.2z"/>
		</g>
		<g>
			<path class="st0" d="M110,161.4c0,0.2,0,0.4,0,0.6c-0.1-0.1-0.1-0.3-0.2-0.4C109.8,161.6,109.9,161.5,110,161.4z"/>
		</g>
		<g>
			<path class="st0" d="M98.6,168.6c0.2-0.2,0.5-0.4,0.7-0.5C99.1,168.3,98.8,168.4,98.6,168.6z"/>
		</g>
		<g>
			<path class="st0" d="M102.2,166.2c0.2-0.2,0.5-0.4,0.7-0.6C102.7,165.9,102.5,166.1,102.2,166.2z"/>
		</g>
		<g>
			<path class="st0" d="M103.4,165.4c0.2-0.1,0.3-0.3,0.5-0.4C103.8,165.2,103.6,165.3,103.4,165.4z"/>
		</g>
		<g>
			<path class="st0" d="M54.3,160.8c-1.5,1.6-3.5,1.2-5.4,1.3c-0.2-0.2-0.4-0.4-0.6-0.6c0.6,0,1.2,0,1.8,0c0.6-0.1,1.6,0.4,1.8-0.4
				c0.2-0.8-0.9-0.9-1.4-1.2c-3.3-2.1-7.1-2.8-10.7-4.3c1.2-1.1-1.1-0.9-0.6-1.8l0.1-0.2c2,0.4,3.9,0.9,5.9,1.3
				c0.5,0.6-2.7,0.3-0.3,1.3c0.7,0.3,1.4,0.6,2.2,1C49.7,158.2,52.1,159.2,54.3,160.8z"/>
		</g>
		<g>
			<path class="st0" d="M49.5,153.7c3.9,1,7.2,3.6,11.4,3.6c-0.8,0.6-1.6,1.2-2.4,1.8l-0.2-0.1c0.1-0.6-0.2-0.9-0.7-1.1
				c-3-1.2-6-2.4-9.2-3c-0.2-0.1-0.4-0.3-0.7-0.4c-0.6-0.1-1.1-0.1-1.7-0.2c-0.8-1-2.3-0.1-3.1-1.1c0.2-0.2,0.4-0.4,0.6-0.6
				c0.8,0.2,1.7,0.3,2.5,0.5C47.1,153.2,48.3,153.4,49.5,153.7z"/>
		</g>
		<g>
			<path class="st0" d="M47.2,157.2c-0.7-0.3-1.4-0.7-2.2-1c-2.4-1,0.8-0.7,0.3-1.3l0.1-0.2c0.4,0,0.8,0.1,1.1,0.1
				c0.2,0.2,0.4,0.3,0.6,0.5c0.7,0.3,1.4,0.7,2.2,0.8c3.1,0.6,5.5,3.2,8.9,2.7l0.2,0.1c-1,0.6-2,1.1-3,1.7
				C53.2,158.4,50.6,156.8,47.2,157.2z"/>
		</g>
		<g>
			<path class="st0" d="M62,156.6c-0.4-2-2.3-1.6-3.5-2.1c-1.3-0.6-2.8-0.9-4.2-1.3c0.2-0.2,0.5-0.5,0.7-0.7
				c2.9,0.6,5.8,0.9,8.4,2.4C62.8,155.4,63.2,156.6,62,156.6z"/>
		</g>
		<g>
			<path class="st0" d="M63.7,160.8c0.5,0.2,0.9,0.5,1.4,0.7c-0.3,1.4-1.8,1.8-2.5,2.9c-0.2-1.5-1.4-1.1-2.3-1.1
				C61.5,162.4,62.6,161.6,63.7,160.8z"/>
		</g>
		<g>
			<path class="st0" d="M48.3,161.5c0.2,0.2,0.4,0.4,0.6,0.6c0,0.2,0,0.4-0.1,0.6c-2,0.2-3.6-0.8-5.4-1.4c-0.2-0.1-0.4-0.3-0.7-0.4
				c-0.2,0-0.3,0-0.5-0.1c0.2-0.2,0.5-0.4,0.7-0.6c0.4,0.1,0.7,0.1,1.1,0.2c0.3,0.4,0.8,0.5,1.3,0.5C46.4,161,47.3,161.2,48.3,161.5
				z"/>
		</g>
		<g>
			<path class="st0" d="M64.7,156.3c0.3-0.2,0.8-0.1,0.8,0.6c-0.6,1-1.3,1.8-2.5,2.2c-0.4,0.1-0.9-0.1-0.8-0.5"/>
		</g>
		<g>
			<path class="st0" d="M48.4,165c1.4,0,2.7,0.1,4.1,0.1c-0.8,0.4-1.6,0.8-2.4,1.1c-1.3,0.3-2.4-0.3-3.6-0.7
				C47,164.9,47.8,165.1,48.4,165z"/>
		</g>
		<g>
			<path class="st0" d="M71.6,153.7c0,0.2,0,0.4,0,0.5c-0.2,0.2-0.4,0.4-0.5,0.7l0,0c-0.8,0.6-1.1,1.9-2.4,1.8l0,0
				C68.9,154.9,70,154.1,71.6,153.7z"/>
		</g>
		<g>
			<path class="st0" d="M68.6,154.3c-0.2,0.3-0.5,0.6-0.8,0.9c-0.4,0.4-0.9,1.1-1.4,0.3c-0.3-0.4,0.2-0.9,0.6-1.2
				c0.3-0.3,0.6-0.5,0.9-0.7C68.2,153.8,68.4,154,68.6,154.3z"/>
		</g>
		<g>
			<path class="st0" d="M61.7,159.7c0.5,0.6-0.3,0.9-0.8,1.1"/>
		</g>
		<g>
			<path class="st0" d="M68.6,154.3c-0.2-0.2-0.4-0.4-0.6-0.7c0.4-0.4,0.9-1.4,1.5-0.7C70.1,153.5,69.2,153.9,68.6,154.3z"/>
		</g>
		<g>
			<path class="st0" d="M68.1,158.5c0-0.5-0.1-1-0.6-1.2c0.4-0.2,0.8-0.4,1.2-0.5l0,0C68.7,157.3,68.8,158,68.1,158.5z"/>
		</g>
		<g>
			<path class="st0" d="M54.9,165.6c-0.5,0.6-1.1,0.7-1.8,0.5C53.6,165.6,54.2,165.6,54.9,165.6z"/>
		</g>
		<g>
			<path class="st0" d="M63.8,154.8c0.4-0.2,0.8-0.4,1.2-0.6C64.8,154.7,64.4,154.9,63.8,154.8z"/>
		</g>
		<g>
			<path class="st0" d="M52,166.3c-0.4,0.4-0.9,0.4-1.3,0C51.1,166.3,51.5,166.3,52,166.3z"/>
		</g>
		<g>
			<path class="st1" d="M93.8,186c-0.6,1.1,0,2.1,0.6,3.1c-0.5,0.9-0.8,1.8-1.8,2.3c-0.4,0-0.8,0-1.2-0.1h0.1
				C89.7,188.5,93.3,187.9,93.8,186z"/>
		</g>
		<g>
			<path class="st1" d="M88.4,190.2c-2.2-1.2-4.4-2.4-6.7-3.6c0.5-0.1,1-0.1,1.3-0.7c2.4,0.5,4,2.8,6.6,3
				C89.2,189.4,88.8,189.8,88.4,190.2z"/>
		</g>
		<g>
			<path class="st1" d="M83.6,197.4c-2.3-0.9-4.5-1.9-6.8-2.9c0.3-0.3,0.6-0.5,0.8-0.8c2.4,0.5,4.5,2.3,7.1,2.3
				C84.4,196.5,84,196.9,83.6,197.4z"/>
		</g>
		<g>
			<path class="st1" d="M82.4,189.5c1.6,0.5,3,1.2,4.2,2.3c0,0.3-0.1,0.6-0.1,0.8c-1.6-0.8-3.3-1.6-4.9-2.3
				C81.9,190.1,82.2,189.8,82.4,189.5z"/>
		</g>
		<g>
			<path class="st1" d="M91.5,192.6c-0.6,0.4-1.2,0.7-1.8,1.1c-1.5-2.4,0.2-2.3,1.8-2.3h-0.1C91.4,191.8,91.4,192.2,91.5,192.6z"/>
		</g>
		<g>
			<path class="st1" d="M84.9,200.4c1-0.6,1.6-1.9,3-1.9l0,0c-0.2,1.4-1.5,1.8-2.4,2.5C85.3,200.8,85.1,200.6,84.9,200.4L84.9,200.4
				z"/>
		</g>
		<g>
			<path class="st1" d="M85.9,198.5c-0.3,0.2-0.6,0.4-0.8,0.5c-0.1,0-0.3-0.1-0.5-0.2c0.2-0.2,0.3-0.4,0.5-0.6
				C85.2,198.1,85.5,198.3,85.9,198.5z"/>
		</g>
		<g>
			<path class="st1" d="M86,194.4c0.2-0.2,0.3-0.5,0.5-0.8C86.4,193.9,86.2,194.1,86,194.4z"/>
		</g>
		<g>
			<path class="st1" d="M83.6,197.9c0-0.2,0-0.4,0-0.6C84.1,197.6,84.1,197.8,83.6,197.9z"/>
		</g>
		<g>
			<path class="st1" d="M88.4,190.8c0-0.2,0-0.4,0-0.6C88.9,190.4,88.8,190.6,88.4,190.8z"/>
		</g>
		<g>
			<path class="st1" d="M86.6,193.2c-0.1-0.1-0.2-0.3-0.1-0.5C87,192.7,87,192.9,86.6,193.2z"/>
		</g>
		<g>
			<path class="st1" d="M87.9,191.4c0.2-0.2,0.3-0.4,0.5-0.7C88.2,191,88.1,191.2,87.9,191.4z"/>
		</g>
		<g>
			<path class="st1" d="M87.1,191.9c0.2-0.1,0.5-0.3,0.7-0.4C87.6,191.6,87.4,191.8,87.1,191.9z"/>
		</g>
		<g>
			<path class="st0" d="M77.7,224.4c-1.4,1.3-1.7,2.5,0.2,3.7c1,0.6,1.8,1.5,2.7,2.2c-0.2,0.2-0.5,0.5-0.7,0.7c-1,0-0.9,0.6-0.3,1
				c1.1,0.8,2.2,1.4,3.4,2.1c-0.2,0.2-0.4,0.3-0.6,0.5c-1.2-0.6-2.4-1.2-3.6-1.8c-0.2-0.1-0.4-0.3-0.6-0.4c-0.1-0.1-0.3-0.2-0.5-0.2
				c-0.2-0.2-0.5-0.4-0.7-0.6l0,0c-0.2-0.2-0.4-0.4-0.6-0.6l0,0c-0.7-0.9-2.1-2.6-2.4-2.1c-0.9,1.3,0.9,1.9,1.7,2.9
				c0.1,0.2,0.1,0.3,0.3,0.5c0.1,0.1,0.3,0.3,0.5,0.4l0.1,0.1c0.2,0.2,0.3,0.3,0.5,0.5l0.1,0.1c0.3,0.3,0.7,0.6,1,0.8
				c0,0.1,0.1,0.3,0.1,0.4c-0.2,0.2-0.4,0.4-0.6,0.6c-0.8-0.6-1.6-1.2-2.4-1.8c-1-1.2-2-2.4-3-3.6c0.9-1,0.6-1.5-0.6-1.8
				c0-0.4,0-0.8,0-1.1c0.2,0,0.4-0.1,0.6-0.1c0.6,0.4,1.2,0.8,1.8,1.1c0.2-0.2,0.4-0.4,0.6-0.5l0,0c0.8-0.1,1.5-0.3,0.6-1.2
				c0-0.5,0.1-0.9,0.6-1.2c0.2-0.2,0.4-0.4,0.6-0.6C76.9,224.4,77.3,224.4,77.7,224.4z"/>
		</g>
		<g>
			<path class="st0" d="M66.2,218.3c0.4,0.4,0.8,0.8,1.2,1.3c0,0.2,0,0.4,0,0.5c-0.2,0.2-0.4,0.4-0.6,0.6c-0.3-0.4-0.4-1.3-1.2-0.6
				c-0.1,0.1-0.2,0.1-0.2,0.2c0.1,0.1,0.1,0.3,0.2,0.4l-0.1-0.1c0.1,0.2,0.2,0.4,0.5,0.1c0.2,0,0.5,0,0.8-0.1c0,0.4,0,0.9-0.1,1.3
				c-0.2,0-0.3,0.1-0.4,0.3c-0.1,0.1-0.2,0.2-0.3,0.3c-0.3,0-0.7,0-1,0s-0.5-0.1-0.8-0.1c0.4-1-0.3-1.6-0.8-2.4
				c-1.3-2.4-3.4-4.3-5-6.5c3-0.7,4.6,1.5,6.5,3c0.2,0.4,0.4,0.8,0.6,1.1C65.9,217.9,66.1,218.1,66.2,218.3z M64.5,218.9
				c0.1,0.1,0.1,0.1,0.2,0.1C64.6,219,64.5,219,64.5,218.9c-0.1,0-0.1-0.1-0.2-0.1C64.4,218.9,64.4,218.9,64.5,218.9z"/>
		</g>
		<g>
			<path class="st0" d="M88.1,222.7c-2.7,0.8-5.4,0.4-8.1,0.4c2.2-0.8,4.4-1.6,6.6-2.5c0.4-0.1,0.9-0.3,1.3-0.4c0.2,0,0.3,0,0.5-0.1
				c0.4,0,0.8,0,1.2,0.1c1.2,1.1,2.6,0.4,3.9,0.6c2.7,0.3,5.4-0.6,8,0.6c-0.8,0-1.6,0.1-2.4,0.1c-2.6,0-5.2,0-7.8,0
				c-1.1,0.1-2.2-0.1-3.2,0.2c-0.9,0.2-1.9-0.1-2.6,0.8C86.4,222.6,87.3,222.6,88.1,222.7L88.1,222.7z"/>
		</g>
		<g>
			<path class="st0" d="M67.3,226.2c-1.3,0.2-2.6,0.4-3.9,0.5c-3.7,0-7.4,0-11.1,0c-0.3,0-0.7-0.1-1-0.1c-0.5-0.7-1.3-0.6-2-0.5
				c-0.3-0.1-0.7-0.1-1-0.2c-0.5-0.6-1.2-0.5-1.9-0.5c-0.2,0-0.3,0-0.5-0.1c0.7-0.8,1.6-0.4,2.5-0.6c0.2,0,0.4,0,0.5,0.1
				c0.9,0.9,2.1,0.5,3.1,0.5c0.4,0,0.7,0.1,1,0.1c3.2,1,6.4,0.9,9.6,0c0.4,0,0.7-0.1,1.1-0.1c0.9,0,1.9,0.4,2.5-0.6l0,0
				c0.2,0,0.4,0,0.6,0l0,0c0.2,0.2,0.4,0.4,0.6,0.6c0,0.2,0.1,0.3,0.1,0.5C67.5,226.1,67.4,226.2,67.3,226.2z"/>
		</g>
		<g>
			<path class="st0" d="M89.6,220.2c-0.4,0-0.8,0-1.2-0.1c-0.6-0.8-1.2-0.7-1.8,0l0,0c-2.5-1.5,0.2-1.6,0.6-2.4
				c0.4-0.2,0.8-0.4,1.2-0.6c0.4,0.6,0.8,0.5,1.1,0c0.7,0,1.4,0.1,1.8-0.6c0.4,0,0.8-0.1,1.2-0.1c0.2-0.1,0.4-0.3,0.7-0.4
				c0.2,0,0.4,0,0.6,0.1c0.4,0.6,1.2,0.4,1.8,0.5c-0.7,0.6-1.6,0.4-2.4,0.6c-1.5,0.3-3.1,0.5-4.2,1.7c0.4,0.8,1.3,0.6,2,0.8
				C90.6,219.8,90.1,220,89.6,220.2z"/>
		</g>
		<g>
			<path class="st0" d="M88.5,217.2c-0.4,0.2-0.8,0.4-1.2,0.6c0-0.4,0-0.8,0-1.2c0-0.2,0-0.4,0.1-0.6c0.2-0.2,0.4-0.4,0.6-0.5
				c2.9,0.6,4.9-2.1,7.7-1.9c0.4,0,0.9,0.1,1.4,0.1c-1,0.4-2,0.8-3.1,1.2c-0.6,0.2-1.2,0.4-1.9,0.6c-0.2,0.2-0.4,0.3-0.6,0.5l0,0
				c-0.2,0-0.4,0-0.6,0c-0.2,0.2-0.4,0.4-0.6,0.5c-0.2,0-0.4,0.1-0.6,0.1c-0.2,0.2-0.4,0.4-0.6,0.6
				C88.8,217.1,88.6,217.1,88.5,217.2z"/>
		</g>
		<g>
			<path class="st0" d="M66.9,220.7c0.2-0.2,0.4-0.4,0.6-0.6c0.4,0.4,0.8,0.8,1.2,1.2c0.2,0.2,0.4,0.4,0.6,0.6c0,0.2,0,0.4,0,0.6
				c0,0.2-0.1,0.4-0.1,0.6c-0.4-0.2-0.7-0.4-1.1-0.6c-0.2-0.3-0.4-0.4-0.6,0c-0.2,0.2-0.4,0.4-0.7,0.5c0-0.2-0.1-0.5-0.1-0.7V222
				C66.8,221.6,66.8,221.2,66.9,220.7L66.9,220.7z"/>
		</g>
		<g>
			<path class="st0" d="M65.2,222.6c0.3,0,0.7,0,1,0c0.1,0.2,0.1,0.3,0.1,0.5s0,0.4,0,0.6l0,0c-0.8,0-1.6,0-2.4,0
				c-0.2,0-0.4,0-0.6,0C63.9,223.4,64.5,223,65.2,222.6z"/>
		</g>
		<g>
			<path class="st0" d="M67.5,223.7c0.4,0.1,1.1,0.1,0.9,0.7c-0.2,0.6-0.9,0.4-1.4,0.5l0,0c0-0.2,0-0.4,0-0.6l0,0
				C67.1,224.1,67.3,223.9,67.5,223.7z"/>
		</g>
		<g>
			<path class="st0" d="M70.2,224.2c-0.1,0.1-0.2,0.2-0.4,0.3c0,0-0.2-0.1-0.2-0.2c0-0.1,0.1-0.3,0.1-0.4
				C70,224,70.1,224.1,70.2,224.2z"/>
		</g>
		<g>
			<path class="st0" d="M68.6,226.1c0.2-0.3,0.5-0.6,0.9-0.2c0.3,0.4,0,0.6-0.3,0.8C69,226.5,68.8,226.3,68.6,226.1L68.6,226.1z"/>
		</g>
		<g>
			<path class="st0" d="M68,227.3c-0.4,0-0.8,0-1.2-0.1c0.2-0.3,0.3-0.7,0.5-1c0.1-0.1,0.2-0.1,0.3-0.2c0.2,0,0.3,0.1,0.5,0.1l0,0
				c0,0.2,0,0.4,0,0.6C68.1,226.9,68,227.1,68,227.3z"/>
		</g>
		<g>
			<path class="st0" d="M75.3,226.1c0.9,0.9,0.1,1.1-0.6,1.2C74.9,226.9,75.1,226.5,75.3,226.1z"/>
		</g>
		<g>
			<path class="st0" d="M87.9,220.2c-0.4,0.1-0.9,0.3-1.3,0.4c0-0.2,0-0.3,0-0.5l0,0C87.1,220.2,87.5,220.2,87.9,220.2z"/>
		</g>
		<g>
			<path class="st0" d="M69.2,221.9c-0.2-0.2-0.4-0.4-0.6-0.6C68.9,221.5,69.1,221.7,69.2,221.9z"/>
		</g>
		<g>
			<path class="st0" d="M67.5,222.5c0.2-0.4,0.4-0.3,0.6,0C67.9,222.5,67.7,222.5,67.5,222.5z"/>
		</g>
		<g>
			<path class="st0" d="M66.3,223.1c0-0.2-0.1-0.3-0.1-0.5c0.1-0.1,0.2-0.2,0.3-0.3h0.2h0.2c0,0.2,0.1,0.5,0.1,0.7
				C66.6,223.1,66.5,223.1,66.3,223.1z"/>
		</g>
		<g>
			<path class="st0" d="M69.1,223.1c0.1-0.2,0.1-0.4,0.1-0.6c0.1,0.1,0.1,0.3,0.1,0.4C69.4,223,69.2,223,69.1,223.1z"/>
		</g>
		<g>
			<path class="st0" d="M66.3,223.7c0.2,0,0.4,0,0.6,0c0,0.2,0.1,0.4,0.1,0.5l0,0c-0.2,0-0.4,0-0.6,0l0,0
				C66.3,224.2,66.3,224,66.3,223.7L66.3,223.7z"/>
		</g>
		<g>
			<path class="st0" d="M66.9,224.3c0-0.2,0-0.4-0.1-0.5c0.2,0,0.4,0,0.6,0C67.3,223.9,67.1,224.1,66.9,224.3z"/>
		</g>
		<g>
			<path class="st0" d="M76.5,224.3c-0.2,0.2-0.4,0.4-0.6,0.6C76.1,224.7,76.3,224.5,76.5,224.3z"/>
		</g>
		<g>
			<path class="st0" d="M68.1,226.1c-0.2,0-0.3,0-0.5-0.1c-0.1-0.2-0.1-0.3-0.1-0.5C67.6,225.7,67.9,225.9,68.1,226.1z"/>
		</g>
		<g>
			<path class="st0" d="M68.1,226.7c0-0.2,0-0.4,0-0.6c0.2,0,0.4,0,0.6,0l0,0c0,0.2,0,0.4,0.1,0.6C68.5,226.7,68.3,226.7,68.1,226.7
				z"/>
		</g>
		<g>
			<path class="st0" d="M68.7,226.7c0-0.2-0.1-0.4-0.1-0.6c0.2,0.2,0.4,0.4,0.5,0.6C69,226.7,68.9,226.7,68.7,226.7z"/>
		</g>
		<g>
			<path class="st0" d="M72.2,226.7c-0.2,0-0.4,0-0.6,0.1C71.8,226.4,72,226.4,72.2,226.7z"/>
		</g>
		<g>
			<path class="st0" d="M70.5,227.9c-0.1,0-0.1-0.1-0.2-0.1C70.3,227.8,70.4,227.9,70.5,227.9C70.4,227.9,70.5,227.9,70.5,227.9z"/>
		</g>
		<g>
			<path class="st0" d="M74.6,227.3c-0.2,0.2-0.4,0.4-0.6,0.5C74.3,227.7,74.4,227.5,74.6,227.3z"/>
		</g>
		<g>
			<path class="st0" d="M62.1,167c-5.9,5.7-12.5,6.1-19.6,2.7c-0.2-0.2-0.5-0.3-0.8-0.5l0,0c-0.4-0.4-0.9-0.8-1.3-1.2
				c-0.2-0.1-0.3-0.3-0.5-0.4c-0.2-0.2-0.4-0.5-0.6-0.7c0.2-0.3,0.5-0.5,0.8-0.8c4.8,3.7,10,5.6,16,3.2c2-0.8,4.4-1.5,4.8-4.2
				c0.7,0.1,1.4,0.1,1.8-0.6c0.6-1.1,2.1-1.5,2.5-2.9c1-1,2-2,2.9-3c0.7-0.4,0.6-1.1,0.6-1.8c1.3,0.1,1.6-1.2,2.4-1.8
				c0.6,0.4,1.1,0.7,1.7,1.1c0.1,0.1,0.1,0.1,0.2,0.2c0,0.2,0,0.3-0.1,0.5c-0.7,0.4-0.6,1.2-0.6,1.8c-0.6,1-1.2,2-1.8,3
				c-0.7,0.4-0.6,1.2-0.6,1.9c-0.2,0.2-0.4,0.4-0.5,0.6c-0.9,0.6-0.8,1.6-1.2,2.4v-0.1c-0.7-0.5-0.6-1.2-0.6-1.9l0,0
				c0.2-0.2,0.4-0.4,0.6-0.6c0.3-1.8-0.4-2.1-1.8-1.1c-0.2,0.2-0.4,0.4-0.5,0.7H66c-0.7,0.2-1.1,0.6-1.2,1.3
				c-0.2,0.2-0.4,0.3-0.6,0.5C63.3,165.7,62.7,166.4,62.1,167z M70.4,158.9c0-0.4-0.1-0.8-0.4-0.6c-1,0.5-1.7,1.3-1.9,2.4
				c-0.1,0.5,0.4,0.7,0.8,0.5C69.8,160.8,70,159.8,70.4,158.9z"/>
		</g>
		<g>
			<path class="st0" d="M43.4,174.1c0.2,0.2,0.3,0.3,0.5,0.5C43.8,174.5,43.6,174.3,43.4,174.1z"/>
		</g>
		<g>
			<path class="st1" d="M85.4,201c0.9-0.7,2.2-1.1,2.4-2.5c1.5-0.7,3.6-0.8,3.7-3.1c0.8-0.1,1.6,0.2,2.3-0.4
				c1.2-1.2,3.4-0.9,4.1-2.8c0.9,0.6,1.8,0.5,2.6-0.2c0.4,0,0.8,0,1.2,0c0,0.2,0,0.4,0,0.6c0,0.1-0.1,0.3-0.2,0.4
				c-0.3,0.1-0.6,0.1-1,0.1c-0.9,0.7-2.3,0.2-3,1.3c-0.4,1-1.5,0.8-2.3,1.1c-0.2,0.2-0.5,0.4-0.7,0.6h0.1c-0.2,0.2-0.5,0.3-0.7,0.5
				c-0.1,0.1-0.3,0.1-0.5,0.1c-0.2,0.1-0.5,0.3-0.7,0.4c-0.6,0.4-1.3,0.9-1.9,1.4c-0.2,0.2-0.3,0.4-0.5,0.7l0,0
				c-0.2,0.1-0.4,0.3-0.6,0.4c-1,0.6-2,1.3-3.1,1.9c-0.4,0.4-0.8,0.8-1.2,1.2c-0.2,0-0.4,0-0.6,0c0-0.2,0-0.4,0-0.7
				C85,201.7,85.2,201.4,85.4,201z"/>
		</g>
		<g>
			<path class="st1" d="M108.8,193.2c0.5-0.1,0.9,0,1.2,0.5C109.5,193.8,109.1,193.6,108.8,193.2z"/>
		</g>
		<g>
			<path class="st1" d="M101.4,193.1c0.1-0.1,0.1-0.3,0.2-0.4c0.5,0,1-0.1,1.6-0.1v0.1C102.6,192.8,102,192.9,101.4,193.1z"/>
		</g>
		<g>
			<path class="st1" d="M108.4,195.4c-0.3-0.1-0.5-0.2-0.8-0.3C107.8,195.2,108.1,195.3,108.4,195.4z"/>
		</g>
		<g>
			<polygon class="st1" points="103.2,192.7 103.2,192.5 103.1,192.5 			"/>
		</g>
		<g>
			<path class="st1" d="M79.9,202.7c0.4-1.5-0.8-1.6-1.7-1.9c-3.1-1.1-6.1-2.2-9.2-3.3c0.5-0.1,1.1-0.2,1.4-0.7
				c3.9,0.8,7.3,3.1,11.4,3.6C81,201,81,202.2,79.9,202.7z"/>
		</g>
		<g>
			<path class="st1" d="M85.4,201c-0.2,0.4-0.4,0.7-0.6,1.1c-0.2,0-0.4,0.1-0.6,0.1c0-0.4,0-0.8,0-1.2c0.2-0.2,0.5-0.4,0.7-0.5
				C85.1,200.6,85.3,200.8,85.4,201z"/>
		</g>
		<g>
			<path class="st1" d="M84.8,202.8c0.2,0,0.4,0,0.6,0c-0.2,0.4-0.4,0.8-0.6,1.2c-0.5,0-0.9-0.1-1.2-0.6l0,0
				c0.2-0.2,0.4-0.4,0.6-0.6C84.4,202.8,84.6,202.8,84.8,202.8z"/>
		</g>
		<g>
			<path class="st1" d="M84.2,201c0,0.4,0,0.8,0,1.2C83.6,201.8,83.7,201.4,84.2,201z"/>
		</g>
		<g>
			<path class="st1" d="M84.3,202.8c-0.2,0.2-0.4,0.4-0.6,0.6C83.9,203.2,84.1,203,84.3,202.8z"/>
		</g>
		<g>
			<path class="st0" d="M81.9,145.4c-0.4,0.7-1,1.1-1.8,1.2C80.4,145.7,81,145.3,81.9,145.4z"/>
		</g>
		<g>
			<path class="st0" d="M73.4,154.8c0.1-0.8,0.5-1.4,1.2-1.8l0.1,0.1c0,0.2,0,0.4,0,0.7c-0.4,0.4-0.7,0.8-1.1,1.2
				C73.6,154.9,73.5,154.9,73.4,154.8z"/>
		</g>
		<g>
			<path class="st0" d="M83.2,144.8c-0.3,0.4-0.8,0.6-1.3,0.6c0-0.2,0-0.4-0.1-0.7C82.3,144.7,82.7,144.7,83.2,144.8z"/>
		</g>
		<g>
			<path class="st0" d="M74.6,153.1c0.2-0.4,0.4-0.8,0.6-1.2v0.1C75.1,152.3,74.9,152.7,74.6,153.1L74.6,153.1z"/>
		</g>
		<g>
			<path class="st0" d="M72.8,156c0.2-0.4,0.4-0.8,0.6-1.2c0.1,0.1,0.2,0.1,0.2,0.2c-0.2,0.4-0.4,0.8-0.6,1.1
				C72.9,156.1,72.8,156,72.8,156z"/>
		</g>
		<g>
			<path class="st0" d="M80.1,146.6c-0.2,0.2-0.4,0.4-0.7,0.6C79.7,146.9,79.9,146.7,80.1,146.6z"/>
		</g>
		<g>
			<path class="st0" d="M75.9,151.3c0,0.2,0,0.4-0.2,0.5c-0.2,0-0.3,0-0.5,0.1v-0.1C75.4,151.6,75.7,151.5,75.9,151.3z"/>
		</g>
		<g>
			<path class="st0" d="M71.1,154.9c0.2-0.2,0.4-0.4,0.5-0.7C71.4,154.4,71.2,154.6,71.1,154.9z"/>
		</g>
		<g>
			<path class="st1" d="M93.9,199.8c-0.1,0.7,0.3,1.1,0.9,1.3c5.1,2.2,10.1,4.5,15.7,5.3c0,0.1,0.1,0.3,0.2,0.4
				c-0.4,0.2-0.8,0.4-1.2,0.6c-0.5-0.1-1-0.2-1.4-0.3c-1-0.2-1.9-0.4-2.9-0.6c-3.6-1.4-7.3-2.8-10.9-4.3c-1.1-0.5-2.2-0.8-3.4-0.5
				C91.9,201,92.9,200.4,93.9,199.8z"/>
		</g>
		<g>
			<path class="st1" d="M111.1,205.8c-5.1-1.8-10-4-14.4-7.2c0.4-0.2,0.8-0.5,1.2-0.7c2,2,4.6,3.1,7.1,4.3c0.2,0.2,0.5,0.3,0.7,0.5
				c0.1,0.1,0.3,0.1,0.5,0.1c0.2,0.2,0.5,0.3,0.7,0.5c0.2,0.1,0.3,0.1,0.5,0.1c0.4,0.2,0.9,0.4,1.3,0.5c0.2,0.1,0.4,0.1,0.5,0.1
				c0.8,0.4,1.6,0.7,2.4,1.1C111.5,205.4,111.4,205.6,111.1,205.8z"/>
		</g>
		<g>
			<path class="st1" d="M105.2,200.9c-1.8-1.2-3.9-1.9-5.4-3.6c0.2-0.2,0.5-0.4,0.7-0.5c0.2,0,0.4,0,0.6,0c1,1.5,2.6,2.1,4.1,3
				c0,0.2,0,0.4,0,0.6C105.2,200.6,105.2,200.7,105.2,200.9z"/>
		</g>
		<g>
			<path class="st1" d="M86.6,201.6c1-0.6,2-1.3,3.1-1.9c0.2,0,0.4,0.1,0.6,0.1l0,0C89.5,201.2,88.4,202.2,86.6,201.6z"/>
		</g>
		<g>
			<path class="st1" d="M98.7,197.5c-0.2,0.1-0.5,0.3-0.7,0.5C98.2,197.8,98.4,197.6,98.7,197.5z"/>
		</g>
		<g>
			<path class="st0" d="M105.2,216.6c2.4-0.1,4.5,0.9,6.6,1.8c0.3,0.1,1.1,0.2,0.4,0.9c-0.2,0.1-0.7-0.1-1.1-0.2
				c-0.4,0-0.7-0.1-1.1-0.1c-0.4-0.2-0.9-0.3-1.3-0.5c-0.4-0.1-0.7-0.1-1.1-0.2c-0.6-0.6-1.3-0.5-2-0.4c-0.6-0.1-1.1-0.1-1.7-0.2
				c0-0.1,0-0.3,0-0.4C104.5,217.1,104.9,217.1,105.2,216.6z"/>
		</g>
		<g>
			<path class="st0" d="M106.9,215.4c0.4-0.2,0.8-0.4,1.1-0.6c1,0.4,2,0.7,3.1,1.1C109.6,217.1,108.3,215.8,106.9,215.4z"/>
		</g>
		<g>
			<path class="st0" d="M93.9,216.1c0.6-0.1,1.1-0.1,1.6-0.1c0.2,0.2,0.4,0.4,0.6,0.6c-0.2,0.1-0.3,0.1-0.5,0.1
				C95.1,216.5,94.4,216.7,93.9,216.1z"/>
		</g>
		<g>
			<path class="st0" d="M110,218.9c0.4,0,0.7,0.1,1.1,0.1c-0.2,0.2-0.4,0.4-0.6,0.5c-0.4,0-0.8,0-1.2,0v-0.1
				C109.6,219.3,109.8,219.1,110,218.9z"/>
		</g>
		<g>
			<path class="st0" d="M109.4,219.6c0.4,0,0.8,0,1.2,0c0,0.2,0.1,0.3,0.1,0.5l-0.2,0.1C110.1,220,109.8,219.8,109.4,219.6z"/>
		</g>
		<g>
			<path class="st1" d="M61.9,195.7c-2.2,0-4.2-1.3-6.4-0.7c-0.8-0.2-1.6-0.4-2.4-0.5l-0.1-0.2c-0.2-0.3-0.3-0.6-0.5-0.9
				c0.1-0.2,0.1-0.4,0.2-0.6c-0.2,0-0.5,0-0.8-0.1l-0.1-0.1c-0.6-1.1-1.6-2.1-1.8-3.4c0.5-0.4,0.6-0.9,0.7-1.5
				c0.2,0.1,0.4,0.1,0.5,0.2c0.4,0.3,0.2,1.4,1.2,1.1c1.6-0.6,3.3-1.1,4.9-1.6c0.5-0.1,1-0.1,1.5-0.2c0.4,0.2,0.9,0.5,1.3,0.7
				c-1.9,0.6-3.7,1.2-5.5,1.9c-0.5,0.2-0.9,0.6-1.4,0.9c0.6,0,1.1,0.1,1.7,0.1c0.3,0,0.6,0,0.9,0c3.3,0,6.6,0,10,0
				c0.3,0.1,0.7,0.1,1,0.1c0,0.2,0,0.4,0,0.6l0,0c-1.9,0-3.7,0.1-5.6,0.1c-0.3,0-0.6,0-0.9,0c-2.1-0.1-4.2-0.6-6.1,0.5
				c-0.5,1.8,1.1,1.2,1.8,1.4c2.6,0.6,5.2,1,7.8,1.5C63.5,195.8,62.6,195.4,61.9,195.7z"/>
		</g>
		<g>
			<path class="st1" d="M50.7,187.6c0,0.6-0.2,1.1-0.7,1.5v-0.2c-0.1-0.3-0.2-0.5-0.3-0.8c-0.1,0.3-0.2,0.5-0.3,0.8
				c-0.2,0-0.5,0.1-0.8,0.1c-0.4,0-0.8,0-1.1,0c-0.2,0-0.4,0-0.6,0c-0.2,0-0.4,0-0.6,0c0-0.1,0-0.3,0-0.4v-0.2c0.9,0,1-0.5,0.6-1.1
				c-0.7-1.1-1.3-2.2-2.4-2.9l-0.1-0.1c-0.2-0.2-0.3-0.3-0.5-0.5l-0.1-0.1c-0.2-0.2-0.3-0.3-0.5-0.5l-0.1-0.1
				c-0.2-0.2-0.3-0.3-0.5-0.5l-0.1-0.1c-0.1-0.1-0.3-0.3-0.5-0.4c-0.2-0.3-0.4-0.5-0.6-0.8c0.2-0.2,0.4-0.4,0.6-0.6
				c1,0.8,1.9,1.6,2.9,2.4c1.2,1.4,2.1,3,3.6,4.1c0.2,0,0.5,0,0.7,0c0.4,0,0.7,0,1,0c0.1,0.1,0.2,0.1,0.3,0.1
				C50.8,187.4,50.8,187.5,50.7,187.6z"/>
		</g>
		<g>
			<path class="st1" d="M45.9,189c-0.2,0.2-0.4,0.3-0.6,0.5c-0.8-1.6-2.6-2.1-3.6-3.5c0.5-1.6-1.1-1.7-1.8-2.4l0.1-0.1
				c0.2-0.2,0.5-0.5,0.7-0.7c0.2,0,0.3,0.1,0.5,0.1c0.2,0.1,0.4,0.3,0.6,0.4c0.1,0.1,0.2,0.2,0.4,0.3c0.2,0.2,0.5,0.4,0.8,0.6l0,0
				c0.2,0.2,0.4,0.4,0.6,0.6l0,0c0.2,0.2,0.4,0.4,0.6,0.6l0,0c0.8,1,1.6,1.9,2.5,2.9v0.2C46.3,188.7,46.1,188.9,45.9,189z"/>
		</g>
		<g>
			<path class="st1" d="M41.7,186c1,1.4,2.9,1.9,3.6,3.5c-0.2,0.2-0.5,0.5-0.7,0.7c-1.6-1.4-3.1-2.8-4.7-4.2
				c0.2-0.2,0.4-0.4,0.6-0.6C40.9,185.6,41.3,185.8,41.7,186z"/>
		</g>
		<g>
			<path class="st1" d="M42.4,192.6c0.7-0.8,1.5-1.6,2.2-2.4c1,0.4,1.4,0.9,0.3,1.6C44.2,192.4,43.3,192.7,42.4,192.6z"/>
		</g>
		<g>
			<path class="st1" d="M52,193.1c-0.4-0.1-0.9-0.1-1.4-0.1c0.2-0.6,0.8-0.3,1.2-0.5l0.1,0.1C51.9,192.8,51.9,193,52,193.1z"/>
		</g>
		<g>
			<path class="st1" d="M47.7,189c0.4,0,0.8,0,1.1,0c0,0.2,0.1,0.4,0.1,0.6c-0.2,0.2-0.4,0.4-0.6,0.6c-0.2,0-0.4,0-0.5-0.1
				C47.7,189.8,47.7,189.4,47.7,189z"/>
		</g>
		<g>
			<path class="st1" d="M49.7,191.8c-0.1-0.1-0.3-0.2-0.4-0.3l0.1-0.2c0.1,0,0.3,0,0.5,0C49.8,191.5,49.7,191.6,49.7,191.8z"/>
		</g>
		<g>
			<path class="st1" d="M49.6,188.9c0.1-0.3,0.2-0.5,0.3-0.8c0.1,0.3,0.2,0.5,0.3,0.8h-0.3H49.6z"/>
		</g>
		<g>
			<path class="st1" d="M47.7,189c0,0.4,0,0.8,0.1,1.1c-0.2,0-0.4,0-0.7,0.1l0,0c0-0.4,0-0.8-0.1-1.2C47.2,189,47.5,189,47.7,189z"
				/>
		</g>
		<g>
			<path class="st1" d="M52,193.1c0-0.2-0.1-0.3,0-0.5c0.2,0,0.5,0,0.8,0.1c-0.1,0.2-0.1,0.4-0.2,0.6
				C52.3,193.2,52.1,193.2,52,193.1z"/>
		</g>
		<g>
			<path class="st1" d="M45.9,189c0.2-0.1,0.4-0.3,0.5-0.4c0,0.1,0,0.3,0,0.4C46.3,189,46.1,189,45.9,189z"/>
		</g>
		<g>
			<path class="st1" d="M51.3,193.8c-0.2,0.2-0.4,0.4-0.6,0.6C50.9,194.2,51.1,194,51.3,193.8z"/>
		</g>
		<g>
			<path class="st1" d="M48.3,190.2c0.2-0.2,0.4-0.4,0.6-0.6C48.7,189.8,48.5,190,48.3,190.2z"/>
		</g>
		<g>
			<path class="st1" d="M47.1,190.2c-0.1,0.1-0.1,0.2-0.1,0.2C47,190.3,47,190.3,47.1,190.2L47.1,190.2z"/>
		</g>
		<g>
			<path class="st0" d="M34.6,215.9c1.8-0.2,1.9-1.1,1.1-2.5c2.8-1.8,5.6-3.4,8.9-4.2c1,0,1.1,0.6,0.8,1.4c-1.9,1.6-3.9,3.2-5.4,5.3
				c-0.6,0.6-1.1,1.2-1.7,1.8c-0.5,0.2-0.7,0.6-0.6,1.2l0,0c-1,0.4-1.8,0.3-2.4-0.6l0,0c0.2-0.2,0.4-0.4,0.6-0.6
				c0.6-0.6,0.5-1-0.4-1C34.7,216.8,34.5,216.5,34.6,215.9z"/>
		</g>
		<g>
			<path class="st0" d="M46.6,230.2c-1,0.3-2.2-0.3-3.1,0.6c-2.8-0.1-5-1.6-7.5-2.6c-1.1-0.4-2.1-1.1-3.4-1c0.4-0.4,0.9-0.8,1.3-1.2
				C38.1,227.6,42.2,229.3,46.6,230.2z"/>
		</g>
		<g>
			<path class="st0" d="M34.6,215.9c0,0.6,0.1,0.8,0.8,0.8c0.9,0,1,0.4,0.4,1c-0.2,0-0.4,0-0.6,0c-1.3,0.3-2.3,0.9-2.4,2.4
				c-0.2,0.4-0.4,0.8-0.5,1.2c0-0.2,0-0.4-0.1-0.7c-0.4-0.5-0.8-0.6-1.2,0c-0.4,0.2-0.7,0.5-1.1,0.7c-0.2-0.2-0.5-0.5-0.8-0.7l0,0
				c0.2-0.3,0.4-0.5,0.6-0.8c-0.1-0.1-0.1-0.2,0-0.4c0.7-0.1,1.4,0.1,1.9-0.7c0.6-0.5,1.1-0.9,1.7-1.5c0.8-0.7,0.1-0.8-0.5-0.9
				C33.2,215.9,33.9,215.9,34.6,215.9z"/>
		</g>
		<g>
			<path class="st0" d="M37,220.2c0.4,2.1,2.3,1.8,3.6,2.4c1,0.4,2,0.7,3,1.1c-0.7,0.1-1.4-0.1-1.9,0.6c-2-0.6-4-1.2-6.1-1.9
				C36.1,221.7,36.5,220.9,37,220.2z"/>
		</g>
		<g>
			<path class="st0" d="M35.5,220.2c-0.1,0.1-0.2,0.2-0.4,0.3c-0.1-0.1-0.1-0.3-0.2-0.4c0,0,0.1-0.2,0.2-0.2
				C35.3,220,35.4,220.1,35.5,220.2z"/>
		</g>
		<g>
			<path class="st0" d="M35.6,222.5c-0.2,0.2-0.3,0.4-0.5,0.6C35.3,222.9,35.4,222.7,35.6,222.5z"/>
		</g>
		<g>
			<path class="st0" d="M39.3,153.1c0,0.2,0,0.4,0,0.5l-0.1,0.2c-0.4,0-0.8,0-1.2,0c-0.8-0.1-1.5-0.1-2.3-0.2c0-0.2,0-0.4,0-0.5l0,0
				C36.9,153.1,38.1,153.1,39.3,153.1z"/>
		</g>
		<g>
			<path class="st0" d="M104.6,157.2c-0.6,0-1.2,0-1.9,0.1c-2.4,0-4.8,0-7.2,0l0,0c0.2-0.2,0.4-0.4,0.6-0.6c1.6,0,3.2,0,4.8,0
				c0.2-0.2,0.4-0.4,0.6-0.6c0.2,0,0.4,0,0.5,0c0.5,0.5,0.9,0.6,1.2-0.1c0-0.2,0-0.4,0-0.6c0.6,0.1,1.3,0.9,2,0
				c0.2,0.4,0.4,0.8,0.5,1.2l0,0C105.4,156.9,105,157,104.6,157.2z"/>
		</g>
		<g>
			<path class="st0" d="M105.8,159c-1.9,0.4-1.8-0.5-1.2-1.8C105,157.9,105.4,158.4,105.8,159z"/>
		</g>
		<g>
			<path class="st0" d="M105.8,156.7c0.4,0.1,0.8,0.1,0.9,0.6c0,0.1-0.2,0.3-0.3,0.3C105.9,157.5,105.9,157,105.8,156.7L105.8,156.7
				z"/>
		</g>
		<g>
			<path class="st0" d="M105.8,159.7c0-0.2,0-0.4,0-0.6c0.1,0.1,0.2,0.3,0.2,0.4C106,159.5,105.9,159.6,105.8,159.7z"/>
		</g>
		<g>
			<path class="st0" d="M104.7,160.3c0.2-0.2,0.4-0.4,0.6-0.6C105,159.9,104.8,160.1,104.7,160.3z"/>
		</g>
		<g>
			<path class="st0" d="M88.3,222.6c-0.9-0.1-1.8-0.1-2.7-0.2c0.7-0.9,1.8-0.6,2.6-0.8c1-0.3,2.1-0.2,3.2-0.2c1.3,1,2.8,0.4,4.2,0.5
				c1,0.1,2.1-0.3,3,0.6C95.2,222.5,91.8,222.5,88.3,222.6C88.3,222.5,88.3,222.6,88.3,222.6z"/>
		</g>
		<g>
			<path class="st0" d="M103.4,223.1c-1.5-0.1-2.9,0.2-4.3-0.5C100.5,222.6,102.1,222,103.4,223.1z"/>
		</g>
		<g>
			<path class="st0" d="M104.6,221.9c1.2,0,2.4,0,3.6,0c-1.1,1.1-2.4,0.4-3.6,0.5C104.6,222.3,104.6,222.1,104.6,221.9z"/>
		</g>
		<g>
			<path class="st0" d="M101.6,221.3c0.5,0.2,0.9,0.3,1.4,0.5c-1.3,0-2.6,0.5-3.8-0.4C100,221.4,100.8,221.4,101.6,221.3z"/>
		</g>
		<g>
			<path class="st0" d="M104.6,221.9c0,0.2,0,0.4,0,0.5c-0.2-0.2-0.4-0.4-0.6-0.5C104.2,221.9,104.4,221.9,104.6,221.9z"/>
		</g>
		<g>
			<path class="st0" d="M102.2,156.1c-0.2,0-0.4-0.1-0.5,0c-0.2,0.2-0.4,0.4-0.6,0.6c-1.6,0-3.2,0-4.8,0c0-0.2,0-0.4,0-0.6
				c1.3-0.4,3.2,0.7,3.8-0.6c0.5-1.1-1.3-2.2-2.1-3.3c-0.6-1-1.5-1.8-2.3-2.7c1.7,0.1,3.7-1.1,5,1.2c0.3,0.5,0.3,0.9-0.2,1.3
				c-0.1-0.1-0.1-0.1-0.2-0.1c0.1,0,0.2,0.1,0.2,0.1c0.6,1.5,1.5,2.7,2.9,3.6c0,0.2,0,0.4,0,0.6
				C102.9,156.1,102.5,156.1,102.2,156.1z"/>
		</g>
		<g>
			<path class="st1" d="M108.1,207.1c0.5,0.1,1,0.2,1.4,0.3c1.4,0.2,2.8,0.4,4.2,0.6c0.2,0.1,0.3,0.1,0.5,0.1
				c-0.2,0.5-0.7,0.6-1.1,0.6c-3.3-1-6.8-0.6-10.2-0.9c0-0.1,0-0.2,0-0.4c1,0,2-0.1,2.9-0.1C106.5,207.5,107.4,207.8,108.1,207.1z"
				/>
		</g>
		<g>
			<path class="st2" d="M114.8,209.9c-0.2,0-0.5-0.1-0.7-0.1"/>
		</g>
		<g>
			<path class="st1" d="M39.9,183.6c-2.5-1.8-5.4-2.1-8.4-1.9c0-0.2,0-0.4,0-0.6c0-0.1,0.1-0.3,0.1-0.4c0.4,0,0.8,0,1.2,0
				c0.8,0.8,1.5,0.8,2.3,0.1c2,0.3,3.9,0.9,5.6,2.2C40.4,183.1,40.1,183.4,39.9,183.6z"/>
		</g>
		<g>
			<path class="st1" d="M35.2,182.9c1.3,0.4,2.7,0.9,4,1.3c0.4,0.4,0.9,0.8,1.3,1.1c-0.2,0.2-0.4,0.4-0.6,0.6
				c-2-0.8-3.8-2.1-5.9-2.5C34.4,183.3,34.8,183.1,35.2,182.9z"/>
		</g>
		<g>
			<path class="st1" d="M28.5,183c-0.2,0.1-0.4,0.3-0.6,0.5C27.8,182.7,28.3,183.1,28.5,183C28.6,183,28.5,183,28.5,183z"/>
		</g>
		<g>
			<path class="st0" d="M88.4,144.6c-0.9,0.1-1.8,0.1-2.5-0.5C86.8,144.1,87.7,143.8,88.4,144.6z"/>
		</g>
		<g>
			<path class="st0" d="M85,144.2c-0.4,0.2-0.9,0.3-1.3,0.5C84,144.1,84.4,144.1,85,144.2z"/>
		</g>
		<g>
			<path class="st0" d="M93.8,147.7c-0.2-0.2-0.5-0.4-0.7-0.5C93.4,147.3,93.6,147.5,93.8,147.7z"/>
		</g>
		<g>
			<path class="st1" d="M53.1,194.4c0.8,0.2,1.6,0.4,2.4,0.5c1.4,2.2,2.7,4.4,4.1,6.7c-2.1,0.6-2.2-1.8-3.6-2.4
				C55,197.6,54.1,196,53.1,194.4z"/>
		</g>
		<g>
			<path class="st1" d="M56,199.2c1.3,0.6,1.4,3,3.6,2.4c0.6,0.8,1.2,1.6,1.8,2.4c-0.4,0-0.7,0-1,0l0,0c-1.4-1.2-3.9-0.9-4.8-3
				C55.1,200.2,54.4,199.4,56,199.2z"/>
		</g>
		<g>
			<path class="st1" d="M52.9,195.9c-0.1,0.2-0.1,0.4-0.2,0.5c-0.2-0.2-0.4-0.3-0.6-0.6c-0.1-0.1,0.1-0.3,0.2-0.5
				C52.5,195.5,52.7,195.7,52.9,195.9z"/>
		</g>
		<g>
			<path class="st0" d="M38.7,166.8c-0.2,0-0.4,0-0.6,0c-0.3-0.2-0.7-0.6-0.3-0.8C38.3,165.8,38.5,166.4,38.7,166.8z"/>
		</g>
		<g>
			<path class="st0" d="M38.8,168c0.2,0.2,0.3,0.4,0.5,0.6C39.1,168.4,39,168.2,38.8,168z"/>
		</g>
		<g>
			<path class="st0" d="M54.5,208.7c-0.6,0.1-1.2,0.2-1.6,0.8c-1.6-0.1-3.1-0.1-4.6-0.1c-0.2-0.2-0.5-0.4-0.7-0.5s-0.5-0.1-0.7-0.2
				c1-0.7,2.1-0.6,3.2-0.5c0.6,0.8,1.2,0.8,1.8,0C52.8,208,53.7,208,54.5,208.7z"/>
		</g>
		<g>
			<path class="st0" d="M47.6,208.8c0.2,0.2,0.5,0.4,0.7,0.5c-1,0.4-2,0.9-3,1.3c0.3-0.8,0.2-1.3-0.8-1.4c0.6-0.5,1.2-0.7,1.9-0.6
				C46.8,209.2,47.2,209.5,47.6,208.8z"/>
		</g>
		<g>
			<path class="st0" d="M51.9,208.1c-0.6,0.8-1.2,0.8-1.8,0C50.7,208.1,51.3,208.1,51.9,208.1z"/>
		</g>
		<g>
			<path class="st0" d="M56.3,209.3c-0.6,0.1-1.1,0-1.5-0.5C55.4,208.7,55.9,208.9,56.3,209.3z"/>
		</g>
		<g>
			<path class="st0" d="M47.6,208.8c-0.4,0.6-0.8,0.4-1.1-0.1c0.1-0.1,0.3-0.1,0.4-0.1C47.1,208.7,47.4,208.8,47.6,208.8z"/>
		</g>
		<g>
			<path class="st0" d="M38,153.8c0.4,0,0.8,0,1.2,0c-0.5,0.8,1.8,0.7,0.6,1.8c-0.4-0.1-0.7-0.1-1.1-0.1c-0.2-0.2-0.4-0.4-0.7-0.6
				C38,154.4,38,154.1,38,153.8z"/>
		</g>
		<g>
			<path class="st0" d="M32,154.8c1.4-0.7,2.9-0.7,4.4,0c-0.3,0.1-0.5,0.2-0.8,0.2c-1.1,0-2.2,0-3.4,0
				C32.2,154.9,32.1,154.8,32,154.8z"/>
		</g>
		<g>
			<path class="st0" d="M35.6,155c0.3-0.1,0.5-0.2,0.8-0.2c0.6,0,1.1,0,1.7,0.1c0.2,0.2,0.4,0.4,0.7,0.6
				C37.7,155.5,36.6,155.6,35.6,155z"/>
		</g>
		<g>
			<path class="st0" d="M35.7,153.1c0,0.2,0,0.4,0,0.5c-0.4-0.1-0.9-0.1-1.3-0.2C34.9,153.3,35.3,153.2,35.7,153.1z"/>
		</g>
		<g>
			<path class="st1" d="M60.2,204c0.4,0,0.7,0,1,0c0.2,0.1,0.3,0.3,0.2,0.5C61,204.6,60.6,204.4,60.2,204z"/>
		</g>
		<g>
			<path class="st1" d="M61.5,204.5c0.2,0.2,0.4,0.4,0.7,0.6C62,204.9,61.8,204.7,61.5,204.5z"/>
		</g>
		<g>
			<path class="st1" d="M26.7,202c-1,0.2-2,0.4-3,0.6c0-0.2,0-0.4,0-0.6c0-0.2,0-0.3,0-0.5l0,0c1.1,0.2,2-0.3,2.9-0.7
				c0.6-0.2,1.2-0.3,1.8-0.5c0.8-0.2,1.7-0.4,2.5-0.6C29.9,201.2,27.9,200.8,26.7,202z"/>
		</g>
		<g>
			<path class="st1" d="M30.9,199.8c0.1-0.3-0.1-0.9,0.6-0.5c0,0.2,0,0.3,0,0.5C31.3,199.8,31.1,199.8,30.9,199.8z"/>
		</g>
		<g>
			<path class="st1" d="M31.5,199.7c0-0.2,0-0.3,0-0.5c0.2,0,0.3-0.1,0.5-0.1C31.9,199.4,31.7,199.5,31.5,199.7z"/>
		</g>
		<g>
			<path class="st0" d="M35.7,159.1c2.6,1.4,5.2,2.8,7.8,4.1c-0.5,0.1-1,0.1-1.3,0.7c-2.1-1.2-4.2-2.4-6.4-3.5
				c-0.6-0.3-1.3-1.1-2-0.1c-0.2,0-0.4,0-0.6,0c-0.8-0.9-2.1-1.4-2.4-2.9c-0.1-0.4-1.3-0.6-0.4-1.2c0.4-0.3,1.2-0.2,1.6,0.4
				C32.8,158.1,34.5,158.3,35.7,159.1z"/>
		</g>
		<g>
			<path class="st0" d="M33.3,156.1c2.6,0.6,5,1.6,7.3,2.9c-0.2,0.2-0.4,0.5-0.7,0.7c-1-0.4-2-0.8-3-1.2c-1-1.1-2.7-0.7-3.6-1.8
				C33.3,156.4,33.3,156.2,33.3,156.1z"/>
		</g>
		<g>
			<path class="st0" d="M30.1,218.4c0.3,0.6,0.8,0.6,1.4,0.5c-0.4,0.8-1.2,0.6-1.9,0.7c-0.4-0.1-0.7-0.1-1.1-0.2
				C29.1,219,29.6,218.7,30.1,218.4z"/>
		</g>
		<g>
			<path class="st1" d="M22.6,199.3c1-0.1,1.9-0.1,2.9-0.2c0.4,0.2,0.8,0.4,1.2,0.6c-0.4,0.1-0.7,0.2-1.1,0.2
				c-0.9-0.1-1.8-0.3-2.5,0.4c-1.8,0-3.5,0-5.3,0C19.2,199.1,21.1,200.4,22.6,199.3z"/>
		</g>
		<g>
			<path class="st1" d="M25.6,199.9c0.4-0.1,0.7-0.2,1.1-0.2c0.6,0.2,1.4-0.2,1.8,0.7c-0.6,0.2-1.2,0.3-1.8,0.5
				c-0.4-0.2-0.9-0.4-1.3-0.6C25.5,200.1,25.6,200,25.6,199.9z"/>
		</g>
		<g>
			<path class="st1" d="M23.7,193.2c2.8,0,5.6,0,8.3,0c0.1,0.2,0.1,0.3,0.2,0.5c-0.2,0.1-0.5,0.1-0.7,0.2c-2,0-3.9,0-5.9,0
				c-0.4,0-0.8,0-1.2-0.1C24.1,193.6,23.9,193.4,23.7,193.2z"/>
		</g>
		<g>
			<path class="st1" d="M25.6,193.9c2,0,3.9,0,5.9,0c0,0.1,0,0.3,0,0.4c-2,0.4-4,0.2-6,0C25.5,194.2,25.5,194,25.6,193.9z"/>
		</g>
		<g>
			<path class="st1" d="M32.7,193.8c0.9,0.1,1.9,0.2,2.9,0.2c-0.9,0.6-1.9,0.3-2.9,0.3C32.7,194.1,32.7,193.9,32.7,193.8z"/>
		</g>
		<g>
			<path class="st1" d="M39.3,194c-0.8,0.6-1.5,1-2.5,0.9C37.4,194.1,38.3,193.8,39.3,194z"/>
		</g>
		<g>
			<path class="st1" d="M32.7,193.8c0,0.2,0,0.4,0,0.5c-0.4,0-0.8,0-1.2,0.1c0-0.1,0-0.3,0-0.4c0.2-0.1,0.5-0.1,0.7-0.2
				C32.4,193.7,32.6,193.7,32.7,193.8z"/>
		</g>
		<g>
			<path class="st1" d="M25.6,193.9c0,0.1,0,0.3,0,0.4c-0.4,0-0.8,0-1.2,0c0-0.2,0-0.3,0-0.5C24.7,193.8,25.1,193.8,25.6,193.9z"/>
		</g>
		<g>
			<path class="st1" d="M66.4,180.1c-0.6-0.1-1.1-0.3-1.7-0.5c0.8-0.1,1.6-0.4,2.2,0.4"/>
		</g>
		<g>
			<path class="st1" d="M54.9,185c-0.2,0.1-0.4,0.3-0.6,0.4c0-0.2,0.1-0.3,0.2-0.5C54.6,184.9,54.8,184.9,54.9,185z"/>
		</g>
		<g>
			<path class="st0" d="M92.5,235c-1.3-0.7-2.4,0.2-3.6,0.4c-2.3,0.4-4.4,0.4-6.5-0.9c0.2-0.2,0.4-0.3,0.6-0.5l0.1-0.2
				c0.5,0.2,0.9,0.4,1.4,0.5c1.3,0.3,2.6,0.5,3.9-0.1c-0.9-0.7-2.1,0.1-2.9-0.8c0.7-0.1,1.4,0,1.9-0.7c3.7-0.4,6.9-1.9,10.1-3.6
				c-0.8,1.4-1.6,2.8-2.4,4.2C94.2,233.9,93.3,234.4,92.5,235z"/>
		</g>
		<g>
			<path class="st1" d="M22.6,199.3c-1.4,1.2-3.4-0.1-4.8,1c-0.4,0.1-0.9,0.1-1.3,0.2c-0.2,0-0.3-0.1-0.5-0.2c0-0.4,0-0.8-0.1-1.1
				C18.1,199.2,20.4,199.2,22.6,199.3z"/>
		</g>
		<g>
			<path class="st1" d="M67.4,178.8c2.2-0.3,4.4-0.3,6.6,0C71.9,179.8,69.6,179.7,67.4,178.8z"/>
		</g>
		<g>
			<path class="st0" d="M87.8,237.5c0.3-0.4,0.7-0.5,1.2-0.5C88.7,237.4,88.3,237.5,87.8,237.5z"/>
		</g>
		<g>
			<path class="st0" d="M41.7,232.8c0.4,0.1,0.9,0.3,1.4,0.5C42.5,233.3,42.1,233.2,41.7,232.8z"/>
		</g>
		<g>
			<path class="st1" d="M21.9,187.2c-0.2,0.5-0.6,0.7-1.1,0.7C21,187.4,21.4,187.1,21.9,187.2z"/>
		</g>
		<g>
			<path class="st0" d="M57.4,212.3c-0.4-0.4-0.9-0.8-1.3-1.2c0.8,0,1.4,0.4,1.8,1.1C57.7,212.3,57.5,212.3,57.4,212.3z"/>
		</g>
		<g>
			<path class="st0" d="M66.2,218.3c-0.2-0.2-0.4-0.4-0.6-0.6C65.9,217.9,66.1,218.1,66.2,218.3z"/>
		</g>
		<g>
			<path class="st0" d="M55.4,210.7c-0.4-0.2-0.8-0.4-1.2-0.7C54.8,210,55.2,210.1,55.4,210.7z"/>
		</g>
		<g>
			<path class="st0" d="M54.2,210c-0.5,0-1-0.1-1.3-0.6C53.5,209.4,54,209.5,54.2,210z"/>
		</g>
		<g>
			<path class="st0" d="M56.1,211.1c-0.2-0.2-0.5-0.4-0.7-0.5C55.6,210.8,55.8,211,56.1,211.1z"/>
		</g>
		<g>
			<path class="st1" d="M105.2,199.8c0.2-0.2,0.4-0.4,0.6-0.6c0.6,0.4,1.2,0.7,1.9,1.1c0.8,0.6,1.9,0.8,2.4,1.8v0.1
				c-1.6-0.6-3.2-1.2-4.8-1.8C105.2,200.2,105.2,200,105.2,199.8z"/>
		</g>
		<g>
			<path class="st1" d="M34.8,177.1c2.4,1.5,5.5,1.2,7.5,3.5c-0.2,0.2-0.4,0.4-0.6,0.6c-2.9-1.9-6.1-2.9-9.6-2.3c0-0.2,0-0.4,0-0.6
				l0,0C33,177.9,33.9,177.5,34.8,177.1z"/>
		</g>
		<g>
			<path class="st1" d="M32.1,178.9c-0.4,0.2-0.8,0.3-1.2,0.5c0.4-0.4,0.8-0.7,1.2-1.1C32.1,178.4,32.1,178.7,32.1,178.9z"/>
		</g>
		<g>
			<path class="st1" d="M116.6,205.1c0.2,0,0.3,0.1,0.5,0.1c0,0.2,0.1,0.3,0.1,0.5l-0.1,0.1c-1.4-0.4-2.8-0.8-4.2-1.2
				c-0.5-0.3-1.1-0.5-1.6-0.8c0-0.2,0-0.4,0-0.6c0.4,0,0.8,0,1-0.5c0.2,0,0.5-0.1,0.7-0.1C114,203.7,115.2,204.6,116.6,205.1z"/>
		</g>
		<g>
			<path class="st1" d="M112.2,202.9c-0.2,0.5-0.6,0.4-1,0.5c0-0.2,0-0.4,0-0.6l0,0C111.5,202.8,111.9,202.8,112.2,202.9z"/>
		</g>
		<g>
			<path class="st1" d="M110,202.1c0.5,0.1,0.9,0.1,1.1,0.6l0,0C110.7,202.8,110.2,202.7,110,202.1L110,202.1z"/>
		</g>
		<g>
			<path class="st1" d="M18.9,192.6c1-0.1,1.9,0.1,2.7,0.5C20.7,193.1,19.7,193.5,18.9,192.6z"/>
		</g>
		<g>
			<path class="st1" d="M51.9,186.6c0.2,0.2,0.5,0.4,0.7,0.7c-0.4,0.2-0.9,0.4-1.3,0.6c-0.2-0.1-0.3-0.2-0.5-0.2
				c0.1-0.1,0.1-0.2,0.1-0.4C51.2,187.1,51.6,186.9,51.9,186.6z"/>
		</g>
		<g>
			<path class="st1" d="M50.6,187.1c-0.4,0-0.7,0-1,0C49.9,186.6,50.2,186.5,50.6,187.1z"/>
		</g>
		<g>
			<path class="st0" d="M40.7,170.4c0.1,0.2,0.3,0.4,0.5,0.6C41,170.8,40.8,170.6,40.7,170.4z"/>
		</g>
		<g>
			<path class="st1" d="M113.7,208.1c-1.4-0.2-2.8-0.4-4.2-0.6c0.4-0.2,0.8-0.4,1.2-0.6c2,0.2,3.8-1.3,5.8-0.4
				c0,0.2,0.1,0.3,0.1,0.5C115.6,207.3,114.6,207.7,113.7,208.1z"/>
		</g>
		<g>
			<path class="st1" d="M120.6,208c-0.4,0.2-0.7,0.4-1.1,0.6c-0.6,0-1.1,0-1.7,0.1c0-0.5,0-1.1,0-1.6c0.4,0,0.7,0,1.1,0
				C119.5,207.4,120,207.7,120.6,208z"/>
		</g>
		<g>
			<path class="st1" d="M120.2,206.4c-0.7,0-1.4,0-1.9-0.5C119,205.8,119.7,205.7,120.2,206.4z"/>
		</g>
		<g>
			<path class="st1" d="M117.8,205.7c-0.2,0-0.4,0-0.6,0c0-0.1-0.1-0.3-0.1-0.5C117.3,205.4,117.6,205.6,117.8,205.7z"/>
		</g>
		<g>
			<path class="st1" d="M71.4,208.6c0.4-0.4,0.9-0.6,1.4-0.5C72.5,208.7,72,208.8,71.4,208.6z"/>
		</g>
		<g>
			<path class="st1" d="M93.8,195c-0.7,0.6-1.5,0.3-2.3,0.4l0.1,0.1c0.1-1.4,0.5-2.5,2.2-2.2C94.1,193.9,94.2,194.4,93.8,195z"/>
		</g>
		<g>
			<path class="st1" d="M91.5,192.6c0-0.4-0.1-0.8-0.1-1.2c0.4,0,0.8,0,1.2,0.1C92.2,191.8,91.9,192.2,91.5,192.6z"/>
		</g>
		<g>
			<path class="st1" d="M94.4,189.1c0.4,0,0.8-0.1,1.2-0.1C95.2,189.5,94.8,189.6,94.4,189.1z"/>
		</g>
		<g>
			<path class="st1" d="M104,191.4c0.4,0,0.8,0,1.2,0C104.8,192,104.4,192,104,191.4z"/>
		</g>
		<g>
			<path class="st0" d="M52.3,226.8c3.7,0,7.4,0,11.1,0C59.7,227.6,56,227.6,52.3,226.8z"/>
		</g>
		<g>
			<path class="st0" d="M56.7,230.3c-3.2,1-6.4,1-9.6,0C50.3,230.3,53.5,230.3,56.7,230.3z"/>
		</g>
		<g>
			<path class="st0" d="M41.7,224.3c0.5-0.7,1.2-0.5,1.9-0.6c0.2,0,0.4,0,0.5,0.1c0.5,0.6,1.2,0.5,1.9,0.5c0.8,0.1,1.7,0,2.4,0.6
				c-0.8,0.2-1.8-0.2-2.5,0.6c-0.8-0.2-1.6-0.4-2.4-0.6c-0.3-0.5-0.8-0.6-1.3-0.5C42,224.4,41.9,224.4,41.7,224.3z"/>
		</g>
		<g>
			<path class="st0" d="M46.4,225.6c0.7-0.1,1.4-0.1,1.9,0.5C47.6,226.1,46.9,226,46.4,225.6z"/>
		</g>
		<g>
			<path class="st0" d="M49.3,226.2c0.7-0.1,1.5-0.2,2,0.5C50.6,226.8,49.9,226.7,49.3,226.2z"/>
		</g>
		<g>
			<path class="st0" d="M42.2,224.4c0.5-0.1,1,0,1.3,0.5C43.1,224.7,42.6,224.6,42.2,224.4z"/>
		</g>
		<g>
			<path class="st0" d="M59.2,231c-0.6,0.5-1.2,0.5-1.9,0.4C57.8,230.8,58.5,230.9,59.2,231z"/>
		</g>
		<g>
			<path class="st0" d="M94.4,168.6c-5.7,2.4-11.5,2.5-17.3,0.6c0.5-0.7,1.2-0.5,1.9-0.6c4.7,0.8,9.4,0.7,14.1-0.6
				C93.5,168.1,93.9,168.4,94.4,168.6z"/>
		</g>
		<g>
			<path class="st0" d="M78.9,168.6c-0.6,0.1-1.4,0-1.9,0.6c-3.2-0.2-5.8-2.4-8.9-2.8c0.4-0.8,0.3-1.9,1.2-2.4
				c-0.3,1.3,0.6,1.7,1.6,2C73.6,166.8,76.3,167.7,78.9,168.6z"/>
		</g>
		<g>
			<path class="st0" d="M94.4,168.6c-0.4-0.2-0.9-0.4-1.3-0.6c1.2-0.6,2.5-1.1,3.8-1.7c1.6-0.2,2.8-1.2,4.2-1.9
				c0.2-0.1,0.4-0.3,0.6-0.4l0,0h0.3h0.3c0.2,0.2,0.4,0.4,0.6,0.6v0.1c-0.2,0.2-0.5,0.3-0.7,0.5c-0.2,0-0.4,0.1-0.5,0.2
				c-0.2,0.1-0.4,0.3-0.6,0.4c-1,0.6-2,1.2-3,1.7l0,0c-0.4,0.2-0.9,0.4-1.3,0.6C95.9,168.2,95.1,168.4,94.4,168.6z"/>
		</g>
		<g>
			<path class="st0" d="M96.7,168c0.4-0.2,0.9-0.4,1.3-0.6C97.7,167.9,97.2,168,96.7,168z"/>
		</g>
		<g>
			<path class="st0" d="M87.2,160.3c3.8-0.1,7.6,0,11.4-0.6c0.5,0.7,1.2,0.5,1.9,0.7c-0.9,0.4-1.8,0.7-2.6,1.1c-1.2,0-2.4,0-3.5,0
				C92.1,160,89.4,161.8,87.2,160.3z"/>
		</g>
		<g>
			<path class="st0" d="M75.3,165c-1.8-0.6-3.6-1.1-5.4-1.7c0-0.7-0.1-1.4,0.6-1.9c1.5,2.2,4.3,1.5,6.2,2.9
				C76.2,164.6,75.7,164.8,75.3,165z"/>
		</g>
		<g>
			<path class="st0" d="M102.8,158c-2.4-0.5-4.9,0.4-7.2-0.7c2.4,0,4.8,0,7.2,0C102.8,157.5,102.8,157.7,102.8,158z"/>
		</g>
		<g>
			<path class="st0" d="M101.6,163.8c0-0.2,0-0.5,0-0.8c0.6-0.4,1.2-0.7,1.8-1.1c0.7,1.3-1.1,1-1.2,1.8h-0.3h-0.3V163.8z"/>
		</g>
		<g>
			<path class="st0" d="M102.8,160.9c-0.2-0.2-0.4-0.4-0.6-0.6c0-0.2,0.1-0.3,0.1-0.5c0.5,0,1.3-0.3,1.5,0.4
				C103.9,160.7,103.3,160.8,102.8,160.9z"/>
		</g>
		<g>
			<path class="st0" d="M99.7,159.6c0.5-0.1,0.9-0.3,1.4-0.4C100.7,159.6,100.2,159.7,99.7,159.6z"/>
		</g>
		<g>
			<path class="st0" d="M102.3,159.7c0,0.2-0.1,0.3-0.1,0.5c-0.2,0-0.4,0-0.6-0.1C101.8,160,102.1,159.9,102.3,159.7z"/>
		</g>
		<g>
			<path class="st0" d="M100.4,163.4c-0.2,0.1-0.4,0.3-0.7,0.4C100,163.7,100.2,163.6,100.4,163.4z"/>
		</g>
		<g>
			<path class="st0" d="M102.1,165c0.2-0.2,0.5-0.3,0.7-0.5C102.6,164.7,102.4,164.9,102.1,165z"/>
		</g>
		<g>
			<path class="st0" d="M101,165.6c0.2-0.1,0.4-0.3,0.6-0.4C101.4,165.3,101.2,165.5,101,165.6z"/>
		</g>
		<g>
			<path class="st0" d="M42.3,163.9c0.2-0.6,0.8-0.6,1.3-0.7c1.6,0.6,3.2,1.2,4.9,1.8c-0.6,0.1-1.4,0-1.8,0.6
				C44.9,165.5,43.7,164.5,42.3,163.9z"/>
		</g>
		<g>
			<path class="st0" d="M59.6,164.4c0.4,0.2,0.8,0.4,1.3,0.6C60.5,164.9,60.1,164.6,59.6,164.4z"/>
		</g>
		<g>
			<path class="st0" d="M39.9,159.6c0.2-0.2,0.4-0.5,0.7-0.7c0.8,0.4,1.6,0.8,2.4,1.2c-0.2,0.2-0.5,0.4-0.7,0.6
				C41.5,160.4,40.7,160,39.9,159.6z"/>
		</g>
		<g>
			<path class="st0" d="M42.8,160.9c0.2,0.1,0.4,0.3,0.7,0.4C43.3,161.2,43,161,42.8,160.9z"/>
		</g>
		<g>
			<path class="st0" d="M48.3,154.8c-0.2-0.1-0.4-0.3-0.7-0.4C47.9,154.5,48.1,154.7,48.3,154.8z"/>
		</g>
		<g>
			<path class="st0" d="M46.5,154.9c0.2,0.2,0.4,0.3,0.6,0.5C46.9,155.2,46.7,155.1,46.5,154.9z"/>
		</g>
		<g>
			<path class="st0" d="M44.1,160.3c0.4,0.1,0.9,0.3,1.3,0.5C44.9,160.9,44.4,160.8,44.1,160.3z"/>
		</g>
		<g>
			<path class="st1" d="M82.4,189.5c-0.3,0.3-0.6,0.5-0.9,0.8c-3.4-1.4-7-2.5-10.6-3.1c0.1-0.1,0.2-0.2,0.3-0.3c0.9,0,2,0.6,2.8-0.4
				C77.1,187,79.8,188.3,82.4,189.5z"/>
		</g>
		<g>
			<path class="st1" d="M77.6,193.7c-0.3,0.3-0.6,0.5-0.8,0.8c-3.1-0.8-6.3-1.7-9.4-2.5c0.8-0.3,1.8,0.2,2.4-0.6
				C72.5,191.8,75.1,192.6,77.6,193.7z"/>
		</g>
		<g>
			<path class="st1" d="M60.3,187.8c-0.4-0.2-0.9-0.5-1.3-0.7c0.1-0.1,0.2-0.2,0.3-0.4c0.5-0.1,1.1-0.2,1.6-0.2
				c0.7,0.1,1.4,0.1,1.9-0.4c0.2,0,0.4,0,0.5-0.1c0.6,0,1.2,0.1,1.8,0.1c0,0.3,0,0.7,0,1C63.5,187.3,61.9,187.6,60.3,187.8z"/>
		</g>
		<g>
			<path class="st1" d="M65.8,190.7c-3.3,0-6.6,0-10,0C59.2,189.9,62.5,189.9,65.8,190.7z"/>
		</g>
		<g>
			<path class="st1" d="M72.2,186c0.4,0.2,0.9,0.4,1.3,0.6c-0.8,0.1-1.5,0.3-2.3,0.4c-0.1,0.1-0.2,0.2-0.3,0.3
				c-1.8-0.1-3.5-0.1-5.3-0.2c1.2-1.1,3,0.1,4.2-1C70.6,186,71.4,186,72.2,186z"/>
		</g>
		<g>
			<path class="st1" d="M69.8,186.1c-1.2,1.2-3-0.1-4.2,1l-0.3,0.1l-0.3-0.1c0-0.3,0-0.7,0-1C66.7,186.1,68.2,186.1,69.8,186.1z"/>
		</g>
		<g>
			<path class="st1" d="M69.8,191.5c-0.7,0.8-1.6,0.3-2.4,0.6h-0.3l-0.2-0.1c0-0.2,0-0.4,0-0.6l0,0c0.6,0,1.3-0.1,1.9-0.1
				C69.1,191.4,69.5,191.4,69.8,191.5z"/>
		</g>
		<g>
			<path class="st1" d="M68.8,191.3c-0.6,0-1.3,0.1-1.9,0.1c0-0.2,0-0.4,0-0.6C67.6,190.7,68.2,190.8,68.8,191.3z"/>
		</g>
		<g>
			<path class="st1" d="M61.9,195.7c0.7-0.2,1.5,0.1,2-0.7c2.3,0.2,4.4,1,6.6,1.8c-0.3,0.6-0.9,0.6-1.4,0.7
				C66.7,196.9,64.3,196.3,61.9,195.7z"/>
		</g>
		<g>
			<path class="st1" d="M54.3,192c2-1.2,4.1-0.6,6.1-0.5C58.4,192,56.3,191.9,54.3,192z"/>
		</g>
		<g>
			<path class="st1" d="M66.9,191.4c0,0.2,0,0.4,0,0.6c-1.9,0-3.8,0.1-5.6-0.5C63.2,191.4,65,191.4,66.9,191.4z"/>
		</g>
		<g>
			<path class="st1" d="M83.1,186c-0.2,0.6-0.8,0.6-1.3,0.7c-1.8-0.6-3.6-1.3-5.4-1.9c-0.4-0.5-0.9-0.5-1.5-0.4
				c-0.3-0.1-0.6-0.1-0.9-0.2c-0.8-0.8-1.7-0.5-2.6-0.5c-0.4,0-0.8,0-1.3,0c-1.5,0.1-3.1-0.5-4.4,0.4c-0.4,0.1-0.7,0.1-1.1,0.1
				c-0.7-0.1-1.4-0.2-2,0.4l0.1,0.2c-0.2-0.1-0.4-0.1-0.6-0.2c0-0.1,0-0.3,0-0.4c0-0.2,0-0.4,0-0.6c0.3-0.1,0.7-0.1,1-0.2
				c0.7,0.1,1.4,0.2,2-0.5c0.3,0,0.6-0.1,1-0.1c2.6,0,5.1,0,7.7,0c0.3,0,0.6,0.1,1,0.1c0.5,0.7,1.3,0.6,2,0.5
				C79,183.8,81,184.9,83.1,186z"/>
		</g>
		<g>
			<path class="st1" d="M51.3,187.9c0.4-0.2,0.9-0.4,1.3-0.6c0.8-0.4,1.6-0.8,2.4-1.2c0.2,0,0.3-0.1,0.5-0.2
				c0.3-0.1,0.5-0.2,0.8-0.4c1.4-0.4,2.7-0.8,4.1-1.3c0.4,0.2,0.8,0.4,1.3,0.6c-0.1,0.1-0.1,0.3-0.2,0.5c-0.3,0.1-0.7,0.1-1,0.2
				c-0.2,0-0.4,0.1-0.6,0.1c-0.2,0.1-0.5,0.2-0.7,0.3c-0.2,0-0.3,0-0.5,0.1c-0.6,0.2-1.2,0.4-1.8,0.6c-1.5,0.6-3.2,0.7-4.2,2.3
				C51.5,189.3,51.7,188.2,51.3,187.9z"/>
		</g>
		<g>
			<path class="st1" d="M73.7,182.9c-2.6,0-5.1,0-7.7,0C68.6,182.1,71.1,182.2,73.7,182.9z"/>
		</g>
		<g>
			<path class="st1" d="M76.7,183.5c-0.7,0.1-1.5,0.2-2-0.5C75.3,183.2,76,183.4,76.7,183.5z"/>
		</g>
		<g>
			<path class="st1" d="M61.5,184.9c-0.4-0.2-0.8-0.4-1.3-0.6c0.1-0.1,0.3-0.2,0.4-0.1c0.4,0.1,0.9,0.1,1.3,0.1c0,0.1,0,0.3,0,0.4
				C61.9,184.8,61.7,184.9,61.5,184.9z"/>
		</g>
		<g>
			<path class="st1" d="M65.1,183c-0.5,0.7-1.3,0.6-2,0.5C63.7,183.4,64.4,183.2,65.1,183z"/>
		</g>
		<g>
			<path class="st1" d="M62.1,184.3c-0.4-0.1-0.9-0.1-1.3-0.1c0.4-0.4,0.8-0.5,1.3-0.4C62.1,183.9,62.1,184.1,62.1,184.3z"/>
		</g>
		<g>
			<path class="st1" d="M56.2,185.5c-0.3,0.1-0.5,0.2-0.8,0.4C55.7,185.8,56,185.6,56.2,185.5z"/>
		</g>
		<g>
			<path class="st1" d="M65.7,184.1c1.4-1,2.9-0.4,4.4-0.4C68.7,184.2,67.2,184.1,65.7,184.1z"/>
		</g>
		<g>
			<path class="st1" d="M71.3,187c0.8-0.1,1.5-0.3,2.3-0.4c0.2,0,0.4,0,0.5,0.1C73.2,187.6,72.2,187,71.3,187z"/>
		</g>
		<g>
			<path class="st1" d="M71.4,183.7c0.9,0,1.9-0.3,2.6,0.5C73.1,184.2,72.2,184.1,71.4,183.7z"/>
		</g>
		<g>
			<path class="st1" d="M62.6,184.7c0.6-0.6,1.3-0.5,2-0.4C64,184.7,63.4,184.8,62.6,184.7z"/>
		</g>
		<g>
			<path class="st1" d="M60.8,186.5c0-0.1,0-0.3,0.1-0.4c0.6,0,1.2,0,1.9,0.1C62.2,186.6,61.5,186.5,60.8,186.5z"/>
		</g>
		<g>
			<path class="st1" d="M75,184.3c0.5-0.1,1.1-0.1,1.5,0.4C75.9,184.6,75.4,184.4,75,184.3z"/>
		</g>
		<g>
			<path class="st0" d="M87.3,232.7c-0.5,0.7-1.2,0.6-1.9,0.7c-0.4,0-0.7-0.1-1.1-0.1c-1.4-0.9-3.1-1.1-4.4-2.3
				c0.2-0.2,0.5-0.5,0.7-0.7c1.4,0.6,2.8,1.2,4.2,1.8C85.5,232.9,86.4,232.7,87.3,232.7L87.3,232.7z"/>
		</g>
		<g>
			<path class="st0" d="M87.2,232.7c-0.9,0-1.8,0.2-2.4-0.6C85.7,232.1,86.6,231.9,87.2,232.7z"/>
		</g>
		<g>
			<polygon class="st0" points="88.3,222.6 88.3,222.5 88.1,222.7 			"/>
		</g>
		<g>
			<path class="st0" d="M77.1,231.5c-0.2-0.2-0.4-0.4-0.6-0.6C76.7,231.1,76.9,231.3,77.1,231.5z"/>
		</g>
		<g>
			<path class="st0" d="M77.8,232c-0.2-0.2-0.5-0.4-0.7-0.6C77.3,231.7,77.5,231.9,77.8,232z"/>
		</g>
		<g>
			<path class="st0" d="M76,232.1c0.1,0.1,0.3,0.3,0.5,0.4C76.3,232.4,76.2,232.3,76,232.1z"/>
		</g>
		<g>
			<path class="st0" d="M78.8,232.7c-0.2-0.1-0.4-0.3-0.6-0.4C78.4,232.4,78.6,232.6,78.8,232.7z"/>
		</g>
		<g>
			<path class="st0" d="M76.6,232.7c0.2,0.2,0.3,0.3,0.5,0.5C76.9,233,76.8,232.8,76.6,232.7z"/>
		</g>
		<g>
			<path class="st0" d="M43.5,218.3c0.2,0,0.4,0,0.6,0.1c0.5,0.6,1.2,0.6,1.8,0.5c4.2,1,8.4,2,12.5,3c1.1,1.1,2.5,0.5,3.8,0.6
				c0.7,0,1.4,0,2.1,0c0.3,0,0.5,0.1,0.8,0.1c-0.6,0.4-1.3,0.8-1.9,1.1c-0.8,0-1.6-0.1-2.4-0.1c-0.6-0.6-1.3-0.5-2-0.4
				c-5.3-0.5-10.3-2.2-15.3-3.8c-0.2-0.1-0.5-0.3-0.7-0.4c-0.3-0.1-0.7-0.1-1-0.2C42.2,218.2,42.9,218.4,43.5,218.3z"/>
		</g>
		<g>
			<path class="st0" d="M65.6,220.2c0.8-0.7,0.9,0.2,1.2,0.6l0,0c-0.2,0-0.5,0-0.8,0.1c-0.2,0-0.3-0.1-0.5-0.1l0.1,0.1
				C65.7,220.6,65.7,220.4,65.6,220.2z"/>
		</g>
		<g>
			<path class="st0" d="M87.9,220.2c-0.4,0-0.9-0.1-1.3-0.1c0.6-0.7,1.2-0.8,1.8,0C88.2,220.2,88.1,220.2,87.9,220.2z"/>
		</g>
		<g>
			<path class="st0" d="M53.1,225.5c3.2,0,6.4,0,9.6,0C59.5,226.5,56.3,226.5,53.1,225.5z"/>
		</g>
		<g>
			<path class="st0" d="M48.9,225c1.1,0,2.2-0.1,3.1,0.5C51,225.4,49.8,225.9,48.9,225z"/>
		</g>
		<g>
			<path class="st0" d="M63.7,225.4c0.8-0.6,1.7-0.5,2.5-0.6C65.6,225.8,64.6,225.5,63.7,225.4z"/>
		</g>
		<g>
			<path class="st0" d="M66.2,224.9c0-0.2,0-0.4,0-0.6c0.2,0,0.4,0,0.6,0c0,0.2,0,0.4,0,0.6C66.6,224.9,66.4,224.9,66.2,224.9z"/>
		</g>
		<g>
			<path class="st0" d="M107,219c-5.3-0.3-10.7-0.3-15.9,0.7c-0.7-0.1-1.5,0-2-0.8c1.8-0.4,3.6-0.7,5.4-1.1c0.8,0,1.6,0,2.4-0.1
				c2.9,0.9,5.9,0.8,8.8,0.1c0.7-0.1,1.4-0.1,2,0.4C107.4,218.5,107.2,218.7,107,219z"/>
		</g>
		<g>
			<path class="st0" d="M94.5,217.8c-1.8,0.4-3.6,0.7-5.4,1.1c1.2-1.1,2.7-1.4,4.2-1.7C93.7,217.4,94.1,217.6,94.5,217.8z"/>
		</g>
		<g>
			<path class="st0" d="M91.4,215.9c0,0.2,0,0.4,0,0.6c-0.4,0.7-1.1,0.6-1.8,0.6l0,0c0-0.2,0-0.4,0-0.6c0.2,0,0.4-0.1,0.6-0.1
				c0.2-0.2,0.4-0.4,0.6-0.5C91,215.9,91.2,215.9,91.4,215.9z"/>
		</g>
		<g>
			<path class="st0" d="M88.5,217.2c0.2,0,0.4,0,0.5-0.1c0.2,0,0.4,0,0.6,0l0,0C89.2,217.7,88.9,217.8,88.5,217.2z"/>
		</g>
		<g>
			<path class="st0" d="M92.6,216.4c0.2-0.1,0.4-0.3,0.7-0.4C93,216.1,92.8,216.3,92.6,216.4z"/>
		</g>
		<g>
			<path class="st0" d="M92,215.4c-0.2,0.2-0.4,0.3-0.6,0.5C91.6,215.8,91.8,215.6,92,215.4z"/>
		</g>
		<g>
			<path class="st0" d="M90.8,215.9c-0.2,0.2-0.4,0.4-0.6,0.5C90.4,216.3,90.6,216.1,90.8,215.9z"/>
		</g>
		<g>
			<path class="st0" d="M89.6,217.1c-0.2,0-0.4,0-0.6,0c0.2-0.2,0.4-0.4,0.6-0.6C89.6,216.8,89.6,216.9,89.6,217.1z"/>
		</g>
		<g>
			<path class="st0" d="M66.2,224.4c-0.8-0.2-1.7,0-2.4-0.6c0.8,0,1.6,0,2.4,0C66.2,223.9,66.2,224.1,66.2,224.4z"/>
		</g>
		<g>
			<path class="st0" d="M41.7,169.2c0.2,0.2,0.5,0.3,0.8,0.5C42.2,169.6,41.9,169.4,41.7,169.2z"/>
		</g>
		<g>
			<path class="st0" d="M72.9,156.7c0.2,1.4,1.4,1.2,2.3,1.4c3.1,0.8,6.1,1.4,9.2,2.1c-0.4,0.2-0.9,0.5-1.3,0.7
				c-3.8-0.1-7.2-1.4-10.8-2.4C72.3,157.8,72.2,157.1,72.9,156.7z"/>
		</g>
		<g>
			<path class="st0" d="M65.8,163.3c0.2,0.4,0.4,0.8,0.5,1.2c-0.6,0-1.2,0.1-1.8,0.1C64.7,163.9,65.1,163.5,65.8,163.3z"/>
		</g>
		<g>
			<path class="st0" d="M66.2,162.6c-0.2,0.2-0.4,0.4-0.5,0.7C65.9,163.1,66.1,162.9,66.2,162.6z"/>
		</g>
		<g>
			<path class="st0" d="M67.4,164.4"/>
		</g>
		<g>
			<path class="st0" d="M40.4,168.1"/>
		</g>
		<g>
			<path class="st1" d="M95.2,195.6c-0.2,0.2-0.5,0.4-0.7,0.6C94.7,196.1,94.9,195.9,95.2,195.6z"/>
		</g>
		<g>
			<path class="st1" d="M94.5,196.2c0,0.2,0,0.4-0.1,0.6c-0.2,0-0.4,0-0.6-0.1C94.1,196.6,94.3,196.4,94.5,196.2z"/>
		</g>
		<g>
			<path class="st1" d="M93.4,196.8c-0.2,0.1-0.5,0.3-0.7,0.4C92.9,197.1,93.1,196.9,93.4,196.8z"/>
		</g>
		<g>
			<path class="st1" d="M90.7,198.6c-0.2,0.2-0.3,0.4-0.5,0.7C90.4,199,90.6,198.8,90.7,198.6z"/>
		</g>
		<g>
			<path class="st1" d="M90.3,199.8c-0.2,0-0.4-0.1-0.6-0.1c0.2-0.1,0.4-0.3,0.6-0.4C90.4,199.4,90.4,199.6,90.3,199.8z"/>
		</g>
		<g>
			<path class="st0" d="M85.4,156c-3.7-0.3-7.1-1.6-10.7-2.2c0-0.2,0-0.4,0-0.7c0.2-0.4,0.4-0.8,0.5-1.2c0.2,0,0.3-0.1,0.5-0.1
				c0.1,0.8,0.4,1.3,1.3,1.3l0,0c0.9,0.8,2,0.6,3,0.6l0,0c0.9,0.8,2,0.5,3,0.6l0,0c1.1,0.8,2.4,0.5,3.6,0.6c0.3,0.2,0.5,0.3,0.8,0.5
				C86.7,155.5,85.9,155.3,85.4,156z"/>
		</g>
		<g>
			<path class="st0" d="M85.4,156c0.5-0.7,1.3-0.5,2-0.7c0.5,0,1.1,0.1,1.6,0.1c0.8,0.8,1.7,0.5,2.6,0.5c1.5,0,3,0.1,4.5,0.1
				c0,0.2,0,0.4,0,0.6c-0.2,0.2-0.4,0.4-0.6,0.6c-2.4,0.1-4.8,0.1-7.2-0.7c-0.5-0.7-1.3-0.6-2-0.5C86.1,156.1,85.8,156.1,85.4,156z"
				/>
		</g>
		<g>
			<path class="st0" d="M91.7,156c-0.9,0-1.9,0.4-2.6-0.5C89.9,155.4,90.9,155.5,91.7,156z"/>
		</g>
		<g>
			<path class="st1" d="M106.3,202.8c0.2,0.2,0.5,0.3,0.7,0.5C106.7,203.1,106.5,203,106.3,202.8z"/>
		</g>
		<g>
			<path class="st1" d="M105.1,202.2c0.2,0.2,0.5,0.3,0.7,0.5C105.5,202.5,105.3,202.4,105.1,202.2z"/>
		</g>
		<g>
			<path class="st1" d="M94.4,196.8c0.2,0.2,0.4,0.4,0.7,0.6C94.8,197.2,94.6,197,94.4,196.8z"/>
		</g>
		<g>
			<path class="st0" d="M105.7,217.8c-3,0.8-5.9,0.8-8.8-0.1c0.2,0,0.4-0.1,0.5-0.1c2.2,0,4.4,0,6.6,0
				C104.6,217.7,105.1,217.8,105.7,217.8z"/>
		</g>
		<g>
			<path class="st0" d="M104,217.6c-2.2,0-4.4,0-6.6,0c0-0.2,0-0.4,0-0.5c2.2,0,4.4,0,6.6,0.1C104,217.3,104,217.5,104,217.6z"/>
		</g>
		<g>
			<path class="st0" d="M109.4,219.5c-0.7,0-1.4,0-2-0.5c0.4-0.2,0.9-0.4,1.3-0.6c0.4,0.2,0.9,0.3,1.3,0.5
				C109.8,219.1,109.6,219.3,109.4,219.5z"/>
		</g>
		<g>
			<path class="st0" d="M108.7,218.4c-0.4,0.2-0.9,0.4-1.3,0.6h-0.2H107c0.2-0.2,0.5-0.5,0.7-0.7C108,218.3,108.4,218.4,108.7,218.4
				z"/>
		</g>
		<g>
			<path class="st1" d="M44.6,184.2c-0.2-0.2-0.3-0.3-0.5-0.5C44.2,183.9,44.4,184.1,44.6,184.2z"/>
		</g>
		<g>
			<path class="st1" d="M44,183.6c-0.2-0.2-0.3-0.3-0.5-0.5C43.6,183.3,43.8,183.5,44,183.6z"/>
		</g>
		<g>
			<path class="st1" d="M43.4,183.1c-0.2-0.2-0.3-0.3-0.5-0.5C43,182.7,43.2,182.9,43.4,183.1z"/>
		</g>
		<g>
			<path class="st1" d="M42.8,182.4c-0.1-0.1-0.3-0.3-0.5-0.4C42.5,182.1,42.6,182.3,42.8,182.4z"/>
		</g>
		<g>
			<path class="st1" d="M42.1,183.7c0.2,0.2,0.5,0.4,0.8,0.6C42.6,184.1,42.3,183.9,42.1,183.7z"/>
		</g>
		<g>
			<path class="st1" d="M41.1,183c0.2,0.1,0.4,0.3,0.6,0.4C41.5,183.3,41.3,183.1,41.1,183z"/>
		</g>
		<g>
			<path class="st1" d="M43.4,184.8c0.2,0.2,0.4,0.4,0.6,0.6C43.8,185.3,43.6,185.1,43.4,184.8z"/>
		</g>
		<g>
			<path class="st1" d="M42.8,184.3c0.2,0.2,0.4,0.4,0.6,0.6C43.2,184.7,43,184.5,42.8,184.3z"/>
		</g>
		<g>
			<path class="st0" d="M43.5,218.3c-0.6,0.1-1.3-0.1-1.7,0.5c-1.2-0.3-2.4-0.7-3.6-0.4c0-0.2,0-0.4,0-0.6c0.6-0.6,1.1-1.2,1.7-1.8
				C40.3,218,42.6,217.2,43.5,218.3z"/>
		</g>
		<g>
			<path class="st0" d="M45.8,223.8c0.1,0.2,0.1,0.3,0.2,0.5c-0.7,0-1.4,0.1-1.9-0.5C44.7,223.8,45.2,223.8,45.8,223.8z"/>
		</g>
		<g>
			<path class="st0" d="M60.8,223.6c-0.2,0.1-0.4,0.1-0.6,0.2c-0.5-0.2-1-0.4-1.4-0.6C59.5,223.2,60.3,223,60.8,223.6z"/>
		</g>
		<g>
			<path class="st0" d="M38.2,217.8c0,0.2,0,0.4,0,0.6c-0.2,0.2-0.4,0.4-0.7,0.6C37.5,218.4,37.6,218,38.2,217.8z"/>
		</g>
		<g>
			<path class="st0" d="M42.8,219c0.2,0.1,0.5,0.3,0.7,0.4C43.3,219.3,43,219.1,42.8,219z"/>
		</g>
		<g>
			<path class="st0" d="M35.1,218.3c0-0.2,0-0.4,0-0.6c0.2,0,0.4,0,0.6,0C35.5,217.9,35.3,218.1,35.1,218.3z"/>
		</g>
		<g>
			<path class="st0" d="M32.1,220.7c-0.4,0-0.8,0-1.2,0C31.3,220.1,31.7,220.1,32.1,220.7z"/>
		</g>
		<g>
			<path class="st0" d="M29.1,220.7c0.2-0.3,0.4-0.5,0.6-0.8C29.5,220.2,29.3,220.5,29.1,220.7z"/>
		</g>
		<g>
			<path class="st0" d="M102.2,156.1c0.4-0.1,0.8-0.1,1.2-0.1C103,156.7,102.6,156.6,102.2,156.1z"/>
		</g>
		<g>
			<path class="st0" d="M101,156.6c0.2-0.2,0.4-0.4,0.6-0.6C101.4,156.3,101.2,156.5,101,156.6z"/>
		</g>
		<g>
			<path class="st0" d="M100.4,151.9c-0.1,0-0.2-0.1-0.2-0.1C100.2,151.8,100.3,151.8,100.4,151.9L100.4,151.9z"/>
		</g>
		<g>
			<path class="st1" d="M32.7,180.6c0.8,0,1.6,0.1,2.3,0.1C34.2,181.4,33.5,181.4,32.7,180.6z"/>
		</g>
		<g>
			<path class="st1" d="M25.4,200.2c-0.8,0-1.5,0-2.3,0c0.8-0.7,1.6-0.5,2.5-0.4C25.6,200,25.5,200.1,25.4,200.2z"/>
		</g>
		<g>
			<path class="st0" d="M62.3,222.4c-1.3-0.1-2.7,0.6-3.8-0.6C59.8,222,61.1,221.8,62.3,222.4z"/>
		</g>
		<g>
			<path class="st0" d="M45.9,218.9c-0.7,0-1.4,0.1-1.8-0.5C44.8,218.3,45.4,218.4,45.9,218.9z"/>
		</g>
		<g>
			<path class="st0" d="M101,164.3c0.2-0.1,0.4-0.3,0.6-0.4C101.4,164,101.2,164.1,101,164.3z"/>
		</g>
		<g>
			<path class="st0" d="M83,160.9c0.4-0.2,0.9-0.5,1.3-0.7c1,0,1.9,0.1,2.9,0.1c2.2,1.4,4.9-0.3,7.1,1.1c-2.6,0.5-5.2,0.4-7.8,0
				c-0.9-0.9-2-0.5-3.1-0.5h-0.2L83,160.9z"/>
		</g>
		<g>
			<path class="st0" d="M83.5,160.9c1.1,0,2.2-0.4,3.1,0.5C85.6,161.5,84.5,161.6,83.5,160.9z"/>
		</g>
		<g>
			<path class="st0" d="M86.4,156.1c0.7-0.1,1.4-0.2,2,0.5C87.7,156.7,87,156.6,86.4,156.1z"/>
		</g>
		<g>
			<path class="st1" d="M59.7,185.6c-0.2,0.1-0.5,0.2-0.7,0.3C59.2,185.8,59.4,185.7,59.7,185.6z"/>
		</g>
		<g>
			<path class="st1" d="M97.3,197.6c-1.6-0.1-2.8-0.6-2.6-2.1"/>
		</g>
		<g>
			<path class="st0" d="M66.4,163.9c0.2,0.4,0.4,0.8,0.5,1.2c-0.6,0-1.2,0.1-1.8,0.1C65.3,164.6,65.7,164.1,66.4,163.9z"/>
		</g>
		<g>
			<path class="st0" d="M59.6,164.3c0.4-0.2,0.7-0.5,1.1-0.8c0.1,0.6,0.3,1.1,0.4,1.7C60.4,165.2,59.9,164.9,59.6,164.3z"/>
		</g>
	</g>
	<g>
		<path class="st6" d="M136.9,203.1c-2.1-2.1-3.2-4.7-3.2-7.7c0-3,1-5.6,3.2-7.7c2.1-2.1,4.7-3.2,7.7-3.2h10.9v1.8h-10.9
			c-1.7,0-3.1,0.4-4.5,1.2c-1.4,0.8-2.5,1.9-3.4,3.4c-0.9,1.4-1.2,2.9-1.2,4.5c0,1.7,0.4,3.1,1.2,4.5c0.8,1.4,1.9,2.5,3.4,3.4
			c1.4,0.8,2.9,1.2,4.5,1.2h9.1v-8.2h-6v-1.8h7.8v11.8h-10.9C141.5,206.3,139.1,205.1,136.9,203.1z"/>
		<path class="st6" d="M164.1,203.1c-2.1-2.1-3.2-4.7-3.2-7.7c0-3,1-5.6,3.2-7.7c2.1-2.1,4.7-3.2,7.7-3.2h10.9v1.8h-10.9
			c-2.3,0-4.4,0.8-6.1,2.3c-1.7,1.6-2.7,3.5-3,5.8h20v1.8h-20c0.3,2.3,1.2,4.3,3,5.8c1.7,1.6,3.8,2.3,6.1,2.3h10.9v1.8h-10.9
			C168.8,206.3,166.3,205.1,164.1,203.1z"/>
		<path class="st6" d="M191.4,187.6c2.1-2.1,4.7-3.2,7.7-3.2c3,0,5.6,1,7.7,3.2c2.1,2.1,3.2,4.7,3.2,7.7v10.9h-1.8v-10.9
			c0-1.7-0.4-3.1-1.2-4.5s-1.9-2.5-3.4-3.4c-1.4-0.8-2.9-1.2-4.5-1.2s-3.1,0.4-4.5,1.2c-1.4,0.8-2.5,1.9-3.4,3.4
			c-0.9,1.4-1.2,2.9-1.2,4.5v10.9h-1.8v-10.9C188.3,192.3,189.3,189.8,191.4,187.6z"/>
		<path class="st6" d="M218.7,187.6c2.1-2.1,4.7-3.2,7.7-3.2s5.6,1,7.7,3.2c2.1,2.1,3.2,4.7,3.2,7.7c0,3-1,5.6-3.2,7.7
			c-2.1,2.1-4.7,3.2-7.7,3.2c-3,0-5.6-1-7.7-3.2c-2.1-2.1-3.2-4.7-3.2-7.7C215.6,192.3,216.6,189.8,218.7,187.6z M221.9,203.2
			c1.4,0.8,2.9,1.2,4.5,1.2c1.7,0,3.1-0.4,4.5-1.2c1.4-0.8,2.5-1.9,3.4-3.4c0.8-1.4,1.2-2.9,1.2-4.5c0-1.7-0.4-3.1-1.2-4.5
			c-0.8-1.4-1.9-2.5-3.4-3.4c-1.4-0.8-2.9-1.2-4.5-1.2c-1.7,0-3.1,0.4-4.5,1.2c-1.4,0.8-2.5,1.9-3.4,3.4c-0.9,1.4-1.2,2.9-1.2,4.5
			c0,1.7,0.4,3.1,1.2,4.5C219.3,201.2,220.5,202.4,221.9,203.2z M227.4,194.4c0.3,0.3,0.4,0.6,0.4,0.9s-0.1,0.6-0.4,0.9
			s-0.6,0.4-0.9,0.4c-0.3,0-0.6-0.1-0.9-0.4c-0.3-0.3-0.4-0.6-0.4-0.9s0.1-0.6,0.4-0.9c0.3-0.3,0.6-0.4,0.9-0.4
			C226.7,194,227.1,194.1,227.4,194.4z"/>
		<path class="st6" d="M255.1,202.3l10-17.9h2.2l-12.2,21.8l-12.2-21.8h2.2L255.1,202.3z"/>
		<path class="st6" d="M272.7,206.3l12.2-21.8l12.2,21.8h-2.2l-10-17.9l-10,17.9H272.7z"/>
		<path class="st6" d="M318.7,184.5h6v1.8H323h-4.3h-14.2v8.2h14v1.8h-14v10h-1.8v-20v-0.4v-1.4H318.7z"/>
		<path class="st6" d="M346,204.5h4.3h1.7v1.8h-6h-15.8v-1.4v-0.4v-20h1.8v20H346z"/>
		<path class="st6" d="M360.5,187.6c2.1-2.1,4.7-3.2,7.7-3.2c3,0,5.6,1,7.7,3.2c2.1,2.1,3.2,4.7,3.2,7.7c0,3-1,5.6-3.2,7.7
			c-2.1,2.1-4.7,3.2-7.7,3.2c-3,0-5.6-1-7.7-3.2c-2.1-2.2-3.2-4.7-3.2-7.7C357.3,192.3,358.3,189.8,360.5,187.6z M363.6,203.2
			c1.4,0.8,2.9,1.2,4.5,1.2c1.7,0,3.1-0.4,4.5-1.2c1.4-0.8,2.5-1.9,3.4-3.4c0.8-1.4,1.2-2.9,1.2-4.5c0-1.7-0.4-3.1-1.2-4.5
			s-1.9-2.5-3.4-3.4c-1.4-0.8-2.9-1.2-4.5-1.2c-1.7,0-3.1,0.4-4.5,1.2c-1.4,0.8-2.5,1.9-3.4,3.4c-0.9,1.4-1.2,2.9-1.2,4.5
			c0,1.7,0.4,3.1,1.2,4.5C361,201.2,362.2,202.4,363.6,203.2z M369.2,194.4c0.3,0.3,0.4,0.6,0.4,0.9s-0.1,0.6-0.4,0.9
			c-0.3,0.3-0.6,0.4-0.9,0.4s-0.6-0.1-0.9-0.4c-0.3-0.3-0.4-0.6-0.4-0.9s0.1-0.6,0.4-0.9s0.6-0.4,0.9-0.4S369,194.1,369.2,194.4z"/>
		<path class="st6" d="M408.2,199.4v-14.9h1.8v14.9c0,1.8-0.6,3.5-1.9,4.8c-1.3,1.3-3,1.9-4.8,1.9c-1.3,0-2.5-0.3-3.5-0.9
			c-1-0.6-1.8-1.4-2.5-2.5c-0.6,1-1.4,1.9-2.5,2.5c-1,0.6-2.2,0.9-3.5,0.9c-1.8,0-3.5-0.6-4.8-1.9c-1.3-1.3-1.9-3-1.9-4.8v-14.9h1.8
			v14.9c0,1.4,0.5,2.6,1.4,3.5s2.2,1.4,3.5,1.4c1.3,0,2.6-0.5,3.5-1.4c0.9-0.9,1.4-2.2,1.4-3.5v-14.9h1.8v14.9
			c0,1.3,0.5,2.6,1.4,3.5s2.2,1.4,3.5,1.4c1.4,0,2.6-0.5,3.5-1.4C407.8,202,408.2,200.9,408.2,199.4z"/>
	</g>
</g>
</svg>
